<?xml version="1.0" encoding="UTF-8"?>
<svg width="966px" height="186px" viewBox="0 0 966 186" version="1.1" xmlns="http://www.w3.org/2000/svg" xmlns:xlink="http://www.w3.org/1999/xlink">
    <!-- Generator: Sketch 51.1 (57501) - http://www.bohemiancoding.com/sketch -->
    <title>Search_BG</title>
    <desc>Created with Sketch.</desc>
    <defs>
        <polygon id="path-1" points="0 0 966 0 966 186 0 186"></polygon>
    </defs>
    <g id="Search_BG" stroke="none" stroke-width="1" fill="none" fill-rule="evenodd">
        <mask id="mask-2" fill="white">
            <use xlink:href="#path-1"></use>
        </mask>
        <g id="Clip-2"></g>
        <g id="Group" mask="url(#mask-2)" fill="#E6E6E9">
            <g transform="translate(-258.000000, -369.000000)">
                <path d="M1117.099,2662.879 C1160.752,2559.369 1119.405,2429.159 1089.533,2327.659 C1049.335,2191.019 995.905,2058.209 963.307,1919.359 C950.11,1863.119 939.641,1803.369 947.524,1745.599 C957.217,1674.559 1023.572,1617.179 1074.832,1573.769 C1199.022,1468.639 1372.03,1393.269 1432.86,1232.153 C1466.68,1142.638 1450.42,1040.153 1401.27,959.582 C1329.54,842 1273.128,710.828 1289.545,570.173 C1296.063,514.192 1317.515,461.233 1348.357,414.394 C1383.84,360.465 1429.03,315.576 1458.31,257.196 C1502.77,168.616 1479.62,83.508 1431.42,2.4 C1430.54,0.923 1425.94,-1.691 1427.93,1.658 C1468.95,70.672 1493,142.557 1467.15,221.435 C1439.05,307.148 1366.853,365.68 1324.313,442.829 C1244.445,587.663 1288.904,760.255 1361.843,897.618 C1381.57,934.755 1405.8,969.058 1422.23,1007.933 C1439.18,1048.097 1446.64,1091.723 1446.06,1135.152 C1445.03,1215.445 1406.86,1289.213 1353.93,1347.639 C1294.892,1412.809 1214.317,1459.939 1144.094,1512.009 C1081.085,1558.729 1015.573,1608.499 971.16,1674.219 C928.2,1737.809 938.546,1815.629 952.411,1886.929 C970.39,1979.469 1001.836,2069.309 1031.564,2158.569 C1061.973,2249.889 1093.234,2341.319 1113.874,2435.489 C1129.573,2507.159 1141.977,2589.379 1112.492,2659.269 C1111.912,2660.659 1116.422,2664.469 1117.099,2662.879" id="Fill-1"></path>
                <path d="M1062.182,2618.319 C1106.747,2517.599 1068.451,2389.259 1040.911,2289.249 C1003.851,2154.619 953.756,2023.519 924.184,1886.849 C912.213,1831.499 902.975,1772.749 911.693,1716.259 C922.414,1646.779 988.442,1591.679 1039.434,1549.999 C1162.975,1449.089 1333.856,1378.169 1396.25,1221.281 C1430.93,1134.115 1416.75,1033.376 1369.96,953.552 C1301.663,837.063 1248.617,707.516 1267.122,569.921 C1274.472,515.159 1296.408,463.613 1327.445,418.229 C1363.15,365.975 1408.22,322.747 1437.93,266.024 C1483.02,179.957 1461.79,96.133 1415.94,15.801 C1415.09,14.337 1410.63,11.696 1412.53,15.013 C1451.55,83.367 1473.89,154.245 1447.2,231.121 C1418.18,314.658 1346.41,370.795 1303.388,445.69 C1222.613,586.292 1263.233,756.237 1332.373,892.136 C1351.077,928.88 1374.24,962.92 1389.67,1001.308 C1405.61,1040.97 1412.16,1083.862 1410.85,1126.422 C1408.46,1205.112 1369.79,1276.767 1316.896,1333.129 C1257.906,1395.999 1178.116,1440.819 1108.387,1490.649 C1045.82,1535.369 980.75,1583.029 936.087,1646.689 C892.885,1708.289 901.69,1784.749 914.06,1854.869 C930.095,1945.899 959.379,2034.499 986.988,2122.509 C1015.229,2212.549 1044.305,2302.699 1062.921,2395.369 C1077.079,2465.889 1087.827,2546.699 1057.728,2614.709 C1057.136,2616.059 1061.489,2619.869 1062.182,2618.319" id="Fill-3"></path>
                <path d="M1009.112,2573.699 C1054.525,2475.739 1019.188,2349.279 993.908,2250.769 C959.89,2118.159 913.033,1988.789 886.391,1854.319 C875.606,1799.849 867.559,1742.109 877.074,1686.879 C888.774,1618.959 954.443,1566.079 1005.144,1526.099 C1127.974,1429.299 1296.696,1362.709 1360.549,1209.996 C1396.04,1125.146 1383.87,1026.155 1339.367,947.105 C1274.422,831.746 1224.646,703.848 1245.146,569.29 C1253.29,515.735 1275.678,465.584 1306.881,421.629 C1342.776,371.02 1387.7,329.42 1417.79,274.327 C1463.47,190.734 1444.1,108.202 1400.53,28.671 C1399.73,27.222 1395.4,24.556 1397.2,27.84 C1434.28,95.513 1454.96,165.374 1427.48,240.273 C1397.6,321.661 1326.284,375.458 1282.827,448.135 C1201.236,584.573 1238.139,751.858 1303.581,886.258 C1321.284,922.596 1343.405,956.361 1357.873,994.255 C1372.81,1033.408 1378.5,1075.564 1376.49,1117.261 C1372.8,1194.355 1333.655,1263.931 1280.844,1318.27 C1221.941,1378.889 1142.958,1421.459 1073.752,1469.099 C1011.654,1511.869 947.052,1557.469 902.18,1619.099 C858.773,1678.739 866.094,1753.849 877.015,1822.799 C891.173,1912.299 918.357,1999.659 943.911,2086.399 C970.049,2175.139 997.004,2264.009 1013.662,2355.169 C1026.331,2424.539 1035.481,2503.939 1004.809,2570.079 C1004.205,2571.399 1008.407,2575.209 1009.112,2573.699" id="Fill-4"></path>
                <path d="M957.858,2529.049 C1004.055,2433.809 971.585,2309.229 948.494,2212.239 C917.423,2081.669 873.712,1954.049 849.902,1821.779 C840.266,1768.199 833.368,1711.459 843.643,1657.489 C856.277,1591.109 921.557,1540.399 971.939,1502.079 C1094.004,1409.299 1260.535,1346.919 1325.747,1198.321 C1361.994,1115.756 1351.761,1018.512 1309.493,940.26 C1247.811,826.066 1201.213,699.842 1223.616,568.294 C1232.518,515.937 1255.323,467.161 1286.664,424.609 C1322.719,375.616 1367.466,335.609 1397.91,282.121 C1444.12,200.963 1426.55,119.73 1385.2,41.022 C1384.44,39.588 1380.25,36.9 1381.95,40.151 C1417.14,107.123 1436.22,175.958 1407.99,248.905 C1377.31,328.173 1306.477,379.684 1262.631,450.18 C1180.312,582.522 1213.614,747.134 1275.458,880.003 C1292.188,915.926 1313.293,949.403 1326.825,986.797 C1340.798,1025.432 1345.652,1066.853 1342.965,1107.692 C1338.023,1183.199 1298.459,1250.729 1245.759,1303.088 C1186.98,1361.499 1108.827,1401.869 1040.171,1447.389 C978.566,1488.249 914.458,1531.829 869.415,1591.479 C825.844,1649.199 831.731,1722.939 841.253,1790.719 C853.595,1878.689 878.744,1964.789 902.306,2050.259 C926.404,2137.699 951.302,2225.279 966.067,2314.919 C977.296,2383.139 984.902,2461.119 953.702,2525.429 C953.087,2526.709 957.141,2530.519 957.858,2529.049" id="Fill-5"></path>
                <path d="M908.383,2484.399 C955.3,2391.839 925.608,2269.169 904.64,2173.689 C876.421,2045.169 835.764,1919.319 814.693,1789.259 C806.167,1736.569 800.378,1680.839 811.376,1628.099 C824.899,1563.259 889.759,1514.669 939.804,1477.969 C1061.049,1389.119 1225.359,1330.829 1291.832,1186.279 C1328.78,1105.968 1320.416,1010.469 1280.327,933.039 C1221.822,820.043 1178.311,695.513 1202.528,566.948 C1212.152,515.778 1235.344,468.357 1266.795,427.184 C1302.978,379.778 1347.527,341.329 1378.29,289.42 C1424.98,210.658 1409.15,130.728 1369.97,52.866 C1369.25,51.447 1365.18,48.741 1366.796,51.957 C1400.14,118.21 1417.66,186.011 1388.74,257.033 C1357.303,334.209 1286.986,383.486 1242.799,451.837 C1159.835,580.152 1189.656,742.084 1247.998,873.387 C1263.781,908.888 1283.895,942.066 1296.519,978.954 C1309.552,1017.065 1313.6,1057.751 1310.265,1097.737 C1304.126,1171.667 1264.185,1237.184 1211.627,1287.605 C1153.008,1343.849 1075.706,1382.089 1007.626,1425.529 C946.538,1464.519 882.948,1506.149 837.771,1563.839 C794.071,1619.669 798.577,1692.059 806.748,1758.659 C817.337,1845.109 840.512,1929.939 862.142,2014.119 C884.265,2100.249 907.167,2186.519 920.103,2274.639 C929.939,2341.709 936.058,2418.279 904.37,2480.779 C903.745,2482.029 907.654,2485.829 908.383,2484.399" id="Fill-6"></path>
                <path d="M860.65,2439.789 C908.229,2349.859 881.229,2229.099 862.311,2135.149 C836.856,2008.689 799.16,1884.629 780.739,1756.769 C773.284,1704.979 768.565,1650.249 780.251,1598.749 C794.619,1535.409 859.031,1488.899 908.717,1453.779 C1029.091,1368.759 1191.155,1314.444 1258.794,1173.893 C1296.39,1095.803 1289.83,1002.047 1251.861,925.46 C1196.451,813.692 1155.936,690.876 1181.881,565.267 C1192.191,515.274 1215.739,469.187 1247.274,429.367 C1283.557,383.519 1327.885,346.593 1358.928,296.237 C1406.05,219.833 1391.9,141.211 1354.83,64.215 C1354.148,62.812 1350.208,60.089 1351.737,63.269 C1383.29,128.785 1399.29,195.547 1369.73,264.671 C1337.59,339.781 1267.817,386.879 1223.33,453.121 C1139.805,577.478 1166.257,736.722 1221.194,866.432 C1236.057,901.503 1255.203,934.37 1266.945,970.745 C1279.067,1008.327 1282.337,1048.278 1278.382,1087.418 C1271.096,1159.781 1230.819,1223.319 1178.436,1271.841 C1120.01,1325.969 1043.579,1362.119 976.099,1403.539 C915.549,1440.709 852.502,1480.429 807.228,1536.209 C763.433,1590.179 766.607,1661.219 773.475,1726.649 C782.371,1811.569 803.633,1895.119 823.391,1978.009 C843.599,2062.809 864.569,2147.769 875.737,2234.369 C884.229,2300.279 888.913,2375.449 856.779,2436.179 C856.145,2437.379 859.912,2441.179 860.65,2439.789" id="Fill-7"></path>
                <path d="M814.627,2395.239 C862.808,2307.899 838.413,2189.069 821.481,2096.649 C798.698,1972.249 763.876,1849.989 748.012,1724.349 C741.593,1673.449 737.906,1619.719 750.244,1569.439 C765.416,1507.599 829.353,1463.099 878.66,1429.539 C998.113,1348.259 1157.907,1297.798 1226.621,1161.185 C1264.814,1085.284 1259.992,993.267 1224.088,917.542 C1171.689,807.032 1134.082,685.947 1161.669,563.265 C1172.635,514.436 1196.507,469.665 1228.103,431.172 C1264.454,386.852 1308.54,351.417 1339.834,302.589 C1387.33,228.502 1374.81,151.191 1339.798,75.081 C1339.153,73.693 1335.338,70.957 1336.782,74.1 C1366.585,138.863 1381.13,204.581 1350.964,271.831 C1318.17,344.906 1248.969,389.876 1204.224,454.046 C1120.215,574.513 1143.413,731.064 1195.04,859.155 C1209.006,893.787 1227.211,926.333 1238.097,962.191 C1249.335,999.238 1251.854,1038.456 1247.306,1076.755 C1238.922,1147.563 1198.352,1209.155 1146.17,1255.82 C1087.97,1307.876 1012.43,1342.009 945.572,1381.439 C885.581,1416.849 823.098,1454.689 777.761,1508.589 C733.906,1560.749 735.799,1630.439 741.408,1694.689 C748.672,1778.089 768.081,1860.349 786.026,1941.939 C804.38,2025.419 823.478,2109.059 832.939,2194.139 C840.133,2258.899 843.435,2332.649 810.894,2391.629 C810.252,2392.799 813.879,2396.589 814.627,2395.239" id="Fill-8"></path>
                <path d="M770.276,2350.779 C819.004,2265.989 797.13,2149.089 782.118,2058.209 C761.919,1935.869 729.883,1815.439 716.487,1691.999 C711.068,1641.999 708.377,1589.269 721.334,1540.189 C737.267,1479.829 800.703,1437.319 849.611,1405.259 C968.1,1327.639 1125.603,1280.912 1195.302,1148.176 C1234.043,1074.43 1230.895,984.149 1196.999,909.303 C1147.531,800.079 1112.744,680.741 1141.892,560.956 C1153.478,513.28 1177.646,469.802 1209.278,432.613 C1245.672,389.792 1289.495,355.814 1321.008,308.486 C1368.84,236.679 1357.894,160.68 1324.876,85.473 C1324.269,84.102 1320.575,81.354 1321.937,84.46 C1350.039,148.455 1363.17,213.124 1332.446,278.528 C1299.046,349.596 1230.44,392.49 1185.479,454.625 C1101.063,571.27 1121.117,725.127 1169.526,851.572 C1182.623,885.759 1199.91,917.974 1209.965,953.311 C1220.346,989.819 1222.143,1028.305 1217.026,1065.769 C1207.594,1135.035 1166.769,1194.713 1114.817,1239.561 C1056.873,1289.59 982.24,1321.749 916.027,1359.259 C856.614,1392.929 794.716,1428.959 749.351,1481.019 C705.467,1531.399 706.127,1599.739 710.523,1662.819 C716.213,1744.689 733.827,1825.659 750.018,1905.949 C766.577,1988.089 783.862,2070.409 791.678,2153.969 C797.618,2217.569 799.589,2289.929 766.68,2347.179 C766.03,2348.319 769.521,2352.089 770.276,2350.779" id="Fill-9"></path>
                <path d="M727.565,2306.439 C776.785,2224.159 757.348,2109.199 744.192,2019.849 C726.491,1899.589 697.154,1780.979 686.142,1659.749 C681.687,1610.649 679.953,1558.909 693.497,1511.019 C710.149,1452.129 773.062,1411.539 821.555,1380.959 C939.032,1306.906 1094.225,1263.804 1164.825,1134.887 C1204.065,1063.263 1202.528,974.712 1170.587,900.763 C1123.971,792.848 1091.918,675.271 1122.544,558.353 C1134.719,511.818 1159.156,469.614 1190.802,433.702 C1227.211,392.352 1270.751,359.797 1302.453,313.945 C1350.57,244.377 1341.146,169.692 1310.07,95.404 C1309.499,94.049 1305.926,91.293 1307.207,94.36 C1333.656,157.573 1345.419,221.19 1314.18,284.774 C1280.22,353.866 1212.234,394.736 1167.095,454.871 C1082.346,567.763 1099.364,718.923 1144.647,843.701 C1156.898,877.438 1173.291,909.313 1182.541,944.124 C1192.091,980.088 1193.191,1017.845 1187.534,1054.481 C1177.1,1122.216 1136.057,1180.015 1084.362,1223.087 C1026.706,1271.132 952.995,1301.376 887.447,1337.009 C828.629,1368.999 767.337,1403.249 721.975,1453.509 C678.094,1502.129 677.568,1569.139 680.795,1631.039 C684.969,1711.399 700.845,1791.069 715.339,1870.049 C730.161,1950.849 745.693,2031.839 751.921,2113.879 C756.652,2176.329 757.343,2247.289 724.102,2302.849 C723.445,2303.949 726.802,2307.709 727.565,2306.439" id="Fill-10"></path>
                <path d="M686.459,2262.239 C736.118,2182.439 719.037,2069.409 707.674,1981.599 C692.386,1863.409 665.664,1746.639 656.948,1627.619 C653.424,1579.409 652.612,1528.659 666.709,1481.959 C684.044,1424.519 746.41,1385.809 794.469,1356.659 C910.896,1286.085 1063.762,1246.497 1135.179,1121.338 C1174.872,1051.802 1174.885,964.974 1144.843,891.939 C1100.999,785.356 1071.597,669.552 1103.624,555.47 C1116.356,510.063 1141.035,469.112 1172.671,434.452 C1209.07,394.544 1252.31,363.379 1284.171,318.977 C1332.531,251.609 1324.574,178.238 1295.387,104.885 C1294.851,103.547 1291.395,100.784 1292.599,103.813 C1317.439,166.23 1327.879,228.792 1296.166,290.584 C1261.692,357.728 1194.349,396.624 1149.069,454.797 C1064.058,564.005 1078.146,712.47 1120.395,835.559 C1131.825,868.839 1147.347,900.366 1155.817,934.648 C1164.561,970.066 1164.992,1007.095 1158.818,1042.911 C1147.428,1109.129 1106.204,1165.081 1054.792,1206.415 C997.45,1252.522 924.678,1280.903 859.813,1314.71 C801.608,1345.059 740.939,1377.579 695.611,1426.059 C651.763,1472.979 650.099,1538.649 652.2,1599.389 C654.912,1678.219 669.107,1756.599 681.96,1834.259 C695.103,1913.719 708.939,1993.379 713.637,2073.909 C717.203,2135.199 716.662,2204.769 683.125,2258.659 C682.463,2259.729 685.689,2263.469 686.459,2262.239" id="Fill-11"></path>
                <path d="M646.923,2218.209 C696.97,2140.829 682.165,2029.739 672.533,1943.479 C659.575,1827.359 635.384,1712.439 628.883,1595.619 C626.255,1548.309 626.33,1498.549 640.95,1453.009 C658.927,1396.999 720.725,1360.119 768.335,1332.379 C883.673,1265.192 1034.196,1229.008 1106.35,1107.548 C1146.452,1040.067 1147.955,954.955 1119.759,882.847 C1078.61,777.618 1051.775,663.598 1085.127,552.319 C1098.387,508.028 1123.281,468.309 1154.886,434.877 C1191.251,396.382 1234.17,366.574 1266.164,323.596 C1314.725,258.389 1308.184,186.331 1280.831,113.927 C1280.328,112.607 1276.988,109.838 1278.116,112.828 C1301.396,174.438 1310.556,235.943 1278.409,295.97 C1243.465,361.196 1176.784,398.168 1131.401,454.415 C1046.196,560.006 1057.46,705.78 1096.761,827.162 C1107.395,859.981 1122.068,891.151 1129.784,924.901 C1137.747,959.769 1137.535,996.074 1130.868,1031.076 C1118.567,1095.79 1077.198,1149.929 1026.093,1189.565 C969.092,1233.778 897.271,1260.349 833.107,1292.375 C775.532,1321.123 715.504,1351.969 670.239,1398.709 C626.453,1443.949 623.695,1508.289 624.713,1567.869 C626.019,1645.189 638.589,1722.259 649.855,1798.609 C661.376,1876.729 673.572,1955.049 676.795,2034.069 C679.239,2094.209 677.516,2162.399 643.716,2214.639 C643.049,2215.679 646.147,2219.409 646.923,2218.209" id="Fill-12"></path>
                <path d="M608.923,2174.369 C659.309,2099.379 646.703,1990.229 638.741,1905.509 C628.031,1791.459 606.289,1678.399 601.921,1563.779 C600.157,1517.349 601.084,1468.569 616.197,1424.179 C634.779,1369.589 695.989,1334.509 743.134,1308.123 C857.345,1244.245 1005.516,1211.359 1078.327,1093.537 C1118.795,1028.076 1121.728,944.672 1095.326,873.505 C1056.796,769.649 1032.448,657.421 1067.049,548.913 C1080.807,505.725 1105.891,467.217 1137.444,434.988 C1173.752,397.878 1216.334,369.395 1248.433,327.816 C1297.153,264.729 1291.978,193.983 1266.408,122.54 C1265.938,121.237 1262.711,118.466 1263.766,121.416 C1285.528,182.209 1293.452,242.655 1260.91,300.945 C1225.538,364.282 1159.54,399.38 1114.09,453.737 C1028.756,555.781 1037.296,698.867 1073.739,818.525 C1083.599,850.879 1097.448,881.684 1104.432,914.9 C1111.64,949.215 1110.809,984.799 1103.673,1018.996 C1090.505,1082.219 1049.024,1134.58 998.249,1172.555 C941.616,1214.917 870.758,1239.731 807.313,1270.023 C750.382,1297.215 691.011,1326.418 645.839,1371.469 C602.141,1415.059 598.333,1478.079 598.31,1536.499 C598.263,1612.319 609.263,1688.079 618.996,1763.109 C628.95,1839.879 639.561,1916.859 641.364,1994.379 C642.728,2053.369 639.869,2120.179 605.841,2170.819 C605.169,2171.829 608.142,2175.529 608.923,2174.369" id="Fill-13"></path>
                <path d="M572.427,2130.749 C623.104,2058.099 612.619,1950.899 606.268,1867.709 C597.726,1755.729 578.354,1644.529 576.038,1532.099 C575.105,1486.559 576.851,1438.759 592.427,1395.509 C611.579,1342.309 672.181,1308.968 718.847,1283.917 C831.897,1223.259 977.705,1193.566 1051.099,1079.321 C1091.89,1015.847 1096.196,934.141 1071.537,863.927 C1035.549,761.463 1013.607,651.035 1049.387,545.264 C1063.614,503.165 1088.862,465.849 1120.347,434.798 C1156.573,399.044 1198.802,371.855 1230.98,331.647 C1279.82,270.643 1275.96,201.206 1252.122,130.736 C1251.684,129.451 1248.568,126.679 1249.551,129.588 C1269.841,189.553 1276.571,248.942 1243.673,305.522 C1207.912,367.001 1142.615,400.273 1097.131,452.776 C1011.732,551.339 1017.649,691.745 1051.319,809.664 C1060.429,841.547 1073.477,871.982 1079.752,904.662 C1086.229,938.422 1084.804,973.29 1077.223,1006.687 C1063.23,1068.436 1021.671,1119.05 971.247,1155.404 C915.007,1195.958 845.123,1219.065 782.411,1247.671 C726.14,1273.349 667.439,1300.956 622.388,1344.339 C578.805,1386.319 573.992,1448.029 572.966,1505.289 C571.619,1579.609 581.103,1654.069 589.356,1727.789 C597.796,1803.209 606.877,1878.849 607.314,1954.869 C607.64,2012.719 603.691,2078.159 569.466,2127.209 C568.79,2128.189 571.641,2131.869 572.427,2130.749" id="Fill-14"></path>
                <path d="M537.399,2087.359 C588.321,2017.019 579.883,1911.749 575.084,1830.099 C568.633,1720.189 551.551,1610.849 551.21,1500.599 C551.077,1455.939 553.608,1409.119 569.618,1366.989 C589.304,1315.17 649.281,1283.528 695.454,1259.772 C807.312,1202.253 950.748,1175.647 1024.652,1064.919 C1065.727,1003.399 1071.35,923.381 1048.382,854.131 C1014.863,753.075 995.25,644.452 1032.137,541.384 C1046.806,500.361 1072.194,464.216 1103.589,434.318 C1139.714,399.892 1181.574,373.964 1213.807,335.104 C1262.729,276.142 1260.136,208.011 1237.978,138.525 C1237.569,137.257 1234.564,134.486 1235.477,137.356 C1254.337,196.484 1259.916,254.814 1226.696,309.712 C1190.588,369.362 1126.011,400.857 1080.523,451.542 C995.121,546.693 998.513,684.427 1029.494,800.593 C1037.877,832.004 1050.145,862.06 1055.735,894.202 C1061.506,927.407 1059.511,961.561 1051.506,994.169 C1036.73,1054.458 995.124,1103.358 945.073,1138.129 C889.248,1176.917 820.348,1198.368 758.386,1225.333 C702.785,1249.539 644.771,1275.592 599.865,1317.344 C556.423,1357.749 550.646,1418.159 548.658,1474.269 C546.063,1547.099 554.082,1620.249 560.908,1692.649 C567.887,1766.729 575.491,1841.029 574.615,1915.549 C573.942,1972.269 568.948,2036.349 534.558,2083.839 C533.878,2084.789 536.61,2088.449 537.399,2087.359" id="Fill-15"></path>
                <path d="M503.809,2044.229 C554.931,1976.149 548.466,1872.819 545.163,1792.699 C540.724,1684.849 525.855,1577.379 527.413,1469.299 C528.049,1425.519 531.333,1379.669 547.749,1338.639 C567.936,1288.185 627.27,1258.198 672.939,1235.703 C783.573,1181.239 924.632,1157.62 998.977,1050.347 C1040.294,990.748 1047.178,912.408 1025.853,844.131 C994.73,744.497 977.368,637.684 1015.294,537.285 C1030.376,497.325 1055.884,462.329 1087.171,433.56 C1123.173,400.434 1164.651,375.737 1196.913,338.197 C1245.881,281.24 1244.508,214.41 1223.979,145.917 C1223.602,144.668 1220.702,141.9 1221.548,144.728 C1239.021,203.011 1243.489,260.285 1209.984,313.528 C1173.565,371.38 1109.724,401.145 1064.266,450.048 C978.919,541.855 979.881,676.925 1008.257,791.328 C1015.936,822.261 1027.444,851.934 1032.373,883.537 C1037.46,916.185 1034.918,949.63 1026.512,981.456 C1010.994,1040.3 969.371,1087.52 919.713,1120.746 C864.325,1157.809 796.419,1177.655 735.218,1203.024 C680.3,1225.797 622.985,1250.341 578.25,1290.498 C534.974,1329.359 528.275,1388.479 525.363,1443.449 C521.57,1514.789 528.175,1586.629 533.624,1657.719 C539.194,1730.449 545.374,1803.419 543.237,1876.449 C541.604,1932.029 535.609,1994.769 501.084,2040.729 C500.401,2041.649 503.017,2045.279 503.809,2044.229" id="Fill-16"></path>
                <path d="M471.622,2001.369 C522.902,1935.519 518.337,1834.109 516.474,1755.519 C513.973,1649.719 501.242,1544.119 504.623,1438.199 C505.998,1395.299 510.004,1350.409 526.799,1310.48 C547.452,1261.367 606.129,1232.991 651.281,1211.723 C760.665,1160.233 899.341,1139.501 974.057,1035.624 C1015.58,977.91 1023.673,901.236 1003.939,833.943 C975.142,735.743 959.954,630.742 998.854,532.978 C1014.323,494.066 1039.928,460.199 1071.09,432.536 C1106.949,400.681 1148.032,377.184 1180.301,340.94 C1229.277,285.948 1229.078,220.415 1210.131,152.922 C1209.781,151.692 1206.987,148.928 1207.768,151.715 C1223.896,209.147 1227.293,265.366 1193.536,316.983 C1156.845,373.067 1093.754,401.148 1048.355,448.305 C963.119,536.833 961.744,669.252 987.598,781.88 C994.594,812.335 1005.366,841.619 1009.656,872.681 C1014.081,904.772 1011.016,937.513 1002.23,968.565 C986.01,1025.981 944.399,1071.553 895.152,1103.271 C840.223,1138.652 773.316,1156.941 712.89,1180.758 C658.666,1202.14 602.063,1225.215 557.523,1263.811 C514.435,1301.159 506.854,1358.999 503.057,1412.829 C498.115,1482.699 503.357,1553.229 507.479,1623.009 C511.691,1694.399 516.497,1766.039 513.149,1837.589 C510.595,1892.039 503.643,1953.429 469.011,1997.899 C468.326,1998.779 470.827,2002.389 471.622,2001.369" id="Fill-17"></path>
                <path d="M440.806,1958.809 C492.203,1895.139 489.467,1795.659 488.989,1718.589 C488.354,1614.839 477.686,1511.099 482.817,1407.339 C484.9,1365.309 489.598,1321.371 506.746,1282.516 C527.833,1234.727 585.838,1207.919 630.463,1187.846 C738.568,1139.25 874.86,1121.305 949.882,1020.763 C991.575,964.902 1000.823,889.881 982.635,823.58 C956.09,726.826 943.005,623.639 982.813,528.474 C998.645,490.596 1024.324,457.838 1055.345,431.255 C1091.042,400.646 1131.717,378.318 1163.969,343.343 C1212.922,290.278 1213.851,226.037 1196.436,159.552 C1196.114,158.34 1193.423,155.583 1194.14,158.329 C1208.964,214.902 1211.329,270.069 1177.354,320.086 C1140.426,374.433 1078.1,400.877 1032.789,446.323 C947.719,531.64 944.099,661.419 967.509,772.265 C973.844,802.238 983.902,831.129 987.573,861.651 C991.36,893.183 987.794,925.225 978.649,955.512 C961.765,1011.516 920.194,1055.474 871.375,1085.72 C816.925,1119.46 751.027,1136.24 691.386,1158.549 C637.867,1178.579 581.986,1200.227 537.664,1237.297 C494.786,1273.167 486.363,1329.729 481.717,1382.439 C475.674,1450.839 479.603,1520.069 482.446,1588.539 C485.35,1658.589 488.832,1728.899 484.322,1798.979 C480.884,1852.309 473.017,1912.369 438.306,1955.359 C437.619,1956.219 440.009,1959.789 440.806,1958.809" id="Fill-18"></path>
                <path d="M411.329,1916.559 C462.803,1855.029 461.828,1757.469 462.682,1681.909 C463.838,1580.199 455.161,1478.329 461.971,1376.699 C464.734,1335.539 470.093,1292.553 487.569,1254.76 C509.06,1208.277 566.378,1182.994 610.465,1164.084 C717.269,1118.301 851.177,1103.05 926.439,1005.782 C968.268,951.739 978.62,878.36 961.929,813.056 C937.568,717.758 926.512,616.386 967.166,523.784 C983.335,486.926 1009.068,455.255 1039.933,429.731 C1075.449,400.338 1115.703,379.149 1147.919,345.419 C1196.814,294.242 1198.827,231.286 1182.897,165.816 C1182.603,164.622 1180.012,161.874 1180.667,164.577 C1194.229,220.288 1195.601,274.404 1161.438,322.851 C1124.308,375.491 1062.759,400.343 1017.564,444.114 C932.71,526.285 926.936,653.438 947.981,762.496 C953.677,791.985 963.041,820.477 966.116,850.46 C969.288,881.434 965.242,912.782 955.758,942.313 C938.246,996.922 896.743,1039.297 848.37,1068.108 C794.416,1100.247 729.533,1115.565 670.686,1136.411 C617.882,1155.126 562.734,1175.388 518.652,1210.964 C476.006,1245.39 466.779,1300.694 461.32,1352.279 C454.223,1419.229 456.886,1487.149 458.499,1554.319 C460.144,1623.039 462.35,1692.009 456.728,1760.629 C452.443,1812.849 443.7,1871.589 408.938,1913.139 C408.25,1913.959 410.531,1917.509 411.329,1916.559" id="Fill-19"></path>
                <path d="M383.159,1874.639 C434.672,1815.209 435.39,1719.559 437.523,1645.509 C440.402,1545.829 433.644,1445.819 442.063,1346.319 C445.478,1306.014 451.468,1263.97 469.247,1227.224 C491.11,1182.028 547.73,1158.227 591.27,1140.447 C696.749,1097.402 828.272,1084.75 903.719,990.694 C945.646,938.436 957.053,866.685 941.812,802.385 C919.568,708.552 910.469,608.993 951.908,518.918 C968.39,483.066 994.159,452.463 1024.852,427.971 C1060.171,399.769 1099.992,379.689 1132.15,347.178 C1180.958,297.851 1184.011,236.174 1169.519,171.724 C1169.251,170.548 1166.758,167.81 1167.354,170.471 C1179.691,225.314 1180.108,278.385 1145.79,325.288 C1108.489,376.251 1047.73,399.556 1002.678,441.687 C918.091,520.778 910.248,645.32 929.008,752.585 C934.085,781.588 942.774,809.678 945.275,839.122 C947.853,869.539 943.349,900.197 933.546,928.982 C915.443,982.212 874.033,1023.038 826.122,1050.45 C772.683,1081.028 708.818,1094.93 650.777,1114.354 C598.694,1131.794 544.289,1150.71 500.467,1184.827 C458.073,1217.84 448.08,1271.893 441.844,1322.363 C433.738,1387.869 435.184,1454.499 435.611,1520.369 C436.045,1587.759 437.025,1655.399 430.336,1722.569 C425.24,1773.689 415.663,1831.109 380.875,1871.239 C380.186,1872.039 382.361,1875.559 383.159,1874.639" id="Fill-20"></path>
                <path d="M356.265,1833.069 C407.78,1775.689 410.125,1681.939 413.486,1609.389 C418.018,1511.729 413.109,1413.589 423.069,1316.192 C427.108,1276.743 433.701,1235.632 451.759,1199.918 C473.966,1155.989 529.875,1133.63 572.861,1116.948 C676.994,1076.563 806.136,1066.418 881.704,975.514 C923.7,925.008 936.112,854.871 922.276,791.58 C902.081,699.219 894.869,601.471 937.036,513.886 C953.807,479.026 979.592,449.469 1010.098,425.988 C1045.203,398.949 1084.583,379.949 1116.663,348.632 C1165.353,301.117 1169.403,240.711 1156.303,177.285 C1156.061,176.129 1153.664,173.401 1154.202,176.021 C1165.355,229.991 1164.854,282.021 1130.409,327.408 C1092.971,376.724 1033.013,398.526 988.127,439.052 C903.854,515.13 894.031,637.076 910.579,742.544 C915.058,771.061 923.095,798.746 925.04,827.65 C927.045,857.51 922.104,887.485 912.002,915.534 C893.343,967.401 852.051,1006.71 804.615,1032.758 C751.708,1061.815 688.866,1074.347 631.64,1092.392 C580.286,1108.593 526.631,1126.202 483.09,1158.893 C440.967,1190.528 430.244,1243.34 423.265,1292.707 C414.196,1356.779 414.47,1422.119 413.759,1486.689 C413.028,1552.759 412.828,1619.079 405.119,1684.809 C399.247,1734.829 388.874,1790.949 354.084,1829.699 C353.396,1830.469 355.467,1833.949 356.265,1833.069" id="Fill-21"></path>
                <path d="M330.616,1791.849 C382.097,1736.489 386.004,1644.639 390.544,1573.579 C396.662,1477.919 393.533,1381.639 404.968,1286.336 C409.603,1247.735 416.772,1207.549 435.085,1172.85 C457.607,1130.171 512.795,1109.213 555.218,1093.597 C657.986,1055.797 784.75,1048.068 860.386,960.256 C902.419,911.469 915.789,842.93 903.311,780.653 C885.1,689.771 879.708,593.83 922.544,508.699 C939.581,474.815 965.364,446.284 995.67,423.791 C1030.546,397.888 1069.474,379.939 1101.457,349.792 C1149.999,304.05 1155.007,244.907 1143.253,182.51 C1143.035,181.372 1140.733,178.658 1141.216,181.234 C1151.223,234.33 1149.838,285.323 1115.295,329.223 C1077.751,376.923 1018.603,397.265 973.909,436.22 C889.996,509.349 878.274,628.717 892.687,732.385 C896.588,760.416 903.99,787.691 905.402,816.057 C906.855,845.362 901.498,874.66 891.113,901.981 C871.933,952.504 830.782,990.327 783.838,1015.047 C731.478,1042.623 669.662,1053.829 613.256,1070.536 C562.64,1085.536 509.743,1101.876 466.501,1133.174 C424.668,1163.461 413.25,1215.047 405.562,1263.317 C395.573,1325.968 394.721,1390.019 392.916,1453.309 C391.066,1518.049 389.732,1583.069 381.048,1647.359 C374.434,1696.289 363.303,1751.129 328.536,1788.509 C327.848,1789.249 329.819,1792.699 330.616,1791.849" id="Fill-22"></path>
                <path d="M306.18,1751.009 C357.594,1697.629 363,1607.659 368.669,1538.079 C376.307,1444.419 374.893,1349.979 387.736,1256.758 C392.942,1219 400.658,1179.731 419.205,1146.032 C442.015,1104.582 496.472,1084.986 538.324,1070.406 C639.71,1035.116 764.103,1029.713 839.749,944.935 C881.79,897.833 896.072,830.878 884.908,769.616 C868.616,680.217 864.978,586.079 908.427,503.366 C925.71,470.443 951.473,442.919 981.565,421.389 C1016.196,396.597 1054.662,379.671 1086.531,350.667 C1134.899,306.663 1140.822,248.774 1130.372,187.408 C1130.177,186.289 1127.968,183.588 1128.396,186.123 C1137.295,238.34 1135.063,288.302 1100.448,330.742 C1062.828,376.856 1004.5,395.781 960.021,433.2 C876.512,503.444 862.974,620.253 875.322,722.12 C878.665,749.664 885.454,776.527 886.352,804.357 C887.272,833.108 881.519,861.735 870.87,888.338 C851.202,937.533 810.216,973.903 763.774,997.33 C711.975,1023.463 651.19,1033.386 595.611,1048.796 C545.737,1062.63 493.605,1077.74 450.681,1107.678 C409.154,1136.649 397.078,1187.02 388.714,1234.205 C377.847,1295.447 375.913,1358.219 373.058,1420.229 C370.133,1483.659 367.711,1547.369 358.095,1610.239 C350.773,1658.089 338.92,1711.649 304.199,1747.699 C303.512,1748.419 305.385,1751.829 306.18,1751.009" id="Fill-23"></path>
                <path d="M282.928,1710.559 C334.242,1659.109 341.085,1571.009 347.835,1502.899 C356.93,1411.229 357.163,1318.628 371.352,1227.47 C377.103,1190.547 385.34,1152.186 404.099,1119.471 C427.169,1079.231 480.886,1060.957 522.162,1047.382 C622.15,1014.529 744.178,1011.368 819.784,929.562 C861.802,884.112 876.95,818.724 867.059,758.482 C852.622,670.57 850.67,578.229 894.681,497.896 C912.187,465.92 937.912,439.381 967.78,418.794 C1002.152,395.086 1040.148,379.153 1071.886,351.27 C1120.053,308.965 1126.852,252.321 1117.66,191.988 C1117.489,190.888 1115.369,188.203 1115.746,190.694 C1123.573,242.033 1120.527,290.969 1085.869,331.977 C1048.201,376.534 990.701,394.085 946.459,430.001 C863.395,497.425 848.119,611.693 858.478,711.759 C861.281,738.816 867.475,765.265 867.877,792.561 C868.287,820.759 862.155,848.722 851.261,874.617 C831.138,922.503 790.337,957.451 744.412,979.618 C693.187,1004.346 633.433,1013.031 578.688,1027.182 C529.562,1039.888 478.201,1053.804 435.611,1082.415 C394.408,1110.101 381.706,1159.27 372.698,1205.379 C360.995,1265.224 358.021,1326.723 354.159,1387.449 C350.205,1449.589 346.737,1511.989 336.232,1573.459 C328.234,1620.239 315.697,1672.539 281.043,1707.279 C280.357,1707.969 282.134,1711.349 282.928,1710.559" id="Fill-24"></path>
                <path d="M260.83,1670.509 C312.013,1620.949 320.232,1534.709 328.017,1468.059 C338.504,1378.359 340.322,1287.592 355.794,1198.479 C362.065,1162.383 370.798,1124.922 389.747,1093.175 C413.052,1054.127 466.021,1037.134 506.714,1024.537 C605.29,994.047 724.961,993.043 800.478,914.15 C842.444,870.319 858.416,806.483 849.753,747.262 C837.11,660.839 836.78,570.289 881.3,492.297 C899.008,461.254 924.681,435.681 954.312,416.013 C988.411,393.363 1025.931,378.397 1057.519,351.609 C1105.46,310.966 1113.096,255.558 1105.122,196.26 C1104.973,195.178 1102.941,192.51 1103.268,194.959 C1110.059,245.418 1106.234,293.335 1071.558,332.938 C1033.869,375.967 977.204,392.186 933.22,426.633 C850.64,491.299 833.706,603.048 842.142,701.315 C844.427,727.885 850.044,753.918 849.97,780.681 C849.889,808.33 843.397,835.634 832.274,860.831 C811.728,907.425 771.134,940.983 725.735,961.924 C675.099,985.285 616.376,992.773 562.47,1005.706 C514.097,1017.318 463.512,1030.078 421.273,1057.392 C380.408,1083.825 367.113,1131.804 357.493,1176.847 C344.994,1235.309 341.024,1295.543 336.196,1355.009 C331.254,1415.839 326.784,1476.959 315.433,1537.029 C306.79,1582.749 293.603,1633.799 259.038,1667.259 C258.354,1667.919 260.038,1671.269 260.83,1670.509" id="Fill-25"></path>
                <path d="M239.855,1630.859 C290.877,1583.169 300.413,1498.769 309.188,1433.579 C321.007,1345.819 324.346,1256.881 341.042,1169.794 C347.807,1134.519 357.01,1097.948 376.13,1067.153 C399.644,1029.276 451.858,1013.528 491.963,1001.878 C589.115,973.682 706.438,974.75 781.816,898.712 C823.706,856.466 840.457,794.166 832.981,735.966 C822.07,651.034 823.302,562.267 868.279,486.581 C886.17,456.454 911.774,431.827 941.157,413.056 C974.973,391.438 1012.006,377.411 1043.43,351.695 C1091.121,312.677 1099.557,258.496 1092.758,200.232 C1092.631,199.169 1090.685,196.519 1090.962,198.924 C1096.754,248.503 1092.183,295.408 1057.512,333.633 C1019.83,375.167 964.006,390.092 920.3,423.104 C838.242,485.076 819.726,594.327 826.31,690.796 C828.094,716.881 833.152,742.496 832.621,768.729 C832.066,795.83 825.235,822.484 813.9,846.991 C792.96,892.313 752.592,924.511 707.731,944.259 C657.694,966.29 600.003,972.623 546.94,984.376 C499.324,994.928 449.52,1006.568 407.647,1032.618 C367.136,1057.827 353.281,1104.63 343.077,1148.619 C329.823,1205.711 324.898,1264.686 319.145,1322.892 C313.257,1382.439 307.827,1442.269 295.669,1500.959 C286.412,1545.629 272.61,1595.449 238.154,1627.649 C237.472,1628.289 239.066,1631.599 239.855,1630.859" id="Fill-26"></path>
                <path d="M219.975,1591.649 C270.807,1545.769 281.603,1463.199 291.323,1399.449 C304.414,1313.626 309.212,1226.503 327.072,1141.422 C334.309,1106.961 343.958,1071.27 363.228,1041.412 C386.928,1004.686 438.38,990.145 477.893,979.413 C573.608,953.441 688.596,956.501 763.789,883.258 C805.575,842.566 823.064,781.784 816.735,724.606 C807.497,641.164 810.227,554.173 855.614,480.753 C873.669,451.528 899.189,427.827 928.314,409.931 C961.831,389.321 998.374,376.207 1029.618,351.538 C1077.036,314.109 1086.235,261.143 1080.569,203.914 C1080.463,202.869 1078.602,200.238 1078.832,202.601 C1083.658,251.299 1078.373,297.199 1043.731,334.074 C1006.082,374.141 951.105,387.813 907.695,419.424 C826.196,478.763 806.171,585.538 810.97,680.214 C812.271,705.814 816.791,731.009 815.819,756.715 C814.811,783.271 807.658,809.282 796.127,833.11 C774.822,877.177 734.699,908.047 690.387,926.635 C640.96,947.372 584.3,952.589 532.084,963.2 C485.228,972.727 436.207,983.283 394.714,1008.099 C354.572,1032.115 340.188,1077.756 329.431,1120.701 C315.459,1176.437 309.62,1234.163 302.982,1291.12 C296.189,1349.389 289.839,1407.949 276.914,1465.269 C267.074,1508.899 252.69,1557.489 218.363,1588.469 C217.683,1589.089 219.188,1592.349 219.975,1591.649" id="Fill-27"></path>
                <path d="M201.16,1552.859 C251.775,1508.769 263.774,1428.019 274.396,1365.689 C288.701,1281.784 294.898,1196.464 313.866,1113.372 C321.551,1079.715 331.621,1044.895 351.023,1015.958 C374.884,980.364 425.57,966.993 464.486,957.151 C558.756,933.335 671.419,938.306 746.383,867.801 C788.042,828.63 806.228,769.348 801.004,713.191 C793.381,631.24 797.548,546.014 843.299,474.823 C861.498,446.486 886.921,423.691 915.777,406.649 C948.985,387.02 985.031,374.792 1016.081,351.147 C1063.206,315.271 1073.131,263.509 1068.56,207.313 C1068.473,206.288 1066.693,203.676 1066.879,205.997 C1070.774,253.816 1064.806,298.717 1030.216,334.27 C992.623,372.899 938.498,385.358 895.403,415.599 C814.497,472.368 793.035,576.69 796.114,669.578 C796.951,694.694 800.949,719.469 799.557,744.65 C798.112,770.665 790.654,796.039 778.941,819.198 C757.302,862.029 717.443,891.6 673.686,909.061 C624.881,928.54 569.251,932.683 517.884,942.188 C471.79,950.723 423.557,960.229 382.459,983.843 C342.697,1006.696 327.814,1051.189 316.533,1093.1 C301.881,1147.496 295.167,1203.98 287.683,1259.698 C280.024,1316.703 272.795,1373.989 259.143,1429.959 C248.749,1472.549 233.815,1519.939 199.635,1549.719 C198.958,1550.309 200.377,1553.539 201.16,1552.859" id="Fill-28"></path>
                <path d="M183.383,1514.519 C233.754,1472.169 246.901,1393.219 258.383,1332.299 C273.844,1250.301 281.383,1166.774 301.401,1085.649 C309.512,1052.79 319.98,1018.83 339.496,990.797 C363.496,956.316 413.41,944.079 451.726,935.098 C544.541,913.37 654.893,920.176 729.585,852.35 C771.094,814.668 789.938,756.87 785.781,701.732 C779.714,621.27 785.261,537.799 831.329,468.8 C849.654,441.335 874.966,419.426 903.545,403.215 C936.434,384.545 971.978,373.176 1002.819,350.531 C1049.628,316.172 1060.245,265.604 1056.728,210.44 C1056.661,209.433 1054.961,206.843 1055.104,209.12 C1058.102,256.062 1051.48,299.973 1016.964,334.23 C979.451,371.451 926.182,382.736 883.42,411.64 C803.138,465.899 780.311,567.791 781.735,658.897 C782.125,683.531 785.619,707.885 783.822,732.545 C781.96,758.021 774.214,782.765 762.335,805.266 C740.388,846.88 700.81,875.183 657.618,891.548 C609.442,909.804 554.84,912.912 504.326,921.347 C458.996,928.923 411.553,937.414 370.861,959.856 C331.493,981.576 316.141,1024.934 304.363,1065.824 C289.068,1118.893 281.518,1174.146 273.226,1228.634 C264.74,1284.381 256.671,1340.419 242.329,1395.039 C231.409,1436.619 215.958,1482.819 181.941,1511.419 C181.267,1511.989 182.604,1515.179 183.383,1514.519" id="Fill-29"></path>
                <path d="M166.614,1476.639 C216.717,1435.979 230.959,1358.819 243.259,1299.298 C259.821,1219.186 268.645,1137.439 289.659,1058.26 C298.173,1026.189 309.017,993.08 328.627,965.935 C352.746,932.547 401.883,921.409 439.596,913.262 C530.951,893.556 639.005,902.122 713.386,836.917 C754.72,800.691 774.184,744.358 771.054,690.238 C766.487,611.262 773.356,529.535 819.698,462.69 C838.134,436.082 863.32,415.04 891.613,399.64 C924.173,381.903 959.209,371.369 989.83,349.7 C1036.303,316.823 1047.578,267.436 1045.077,213.301 C1045.028,212.313 1043.406,209.745 1043.507,211.98 C1045.641,258.046 1038.397,300.976 1003.975,333.964 C966.564,369.805 914.153,379.953 871.741,407.553 C792.114,459.363 767.99,558.85 767.824,648.18 C767.783,672.335 770.79,696.267 768.605,720.409 C766.344,745.35 758.326,769.472 746.296,791.325 C724.068,831.739 684.785,858.804 642.167,874.106 C594.63,891.174 541.054,893.284 491.393,900.686 C446.828,907.335 400.177,914.843 359.904,936.144 C320.941,956.759 305.148,998.998 292.902,1038.878 C276.999,1090.635 268.649,1144.668 259.586,1197.937 C250.312,1252.437 241.442,1307.224 226.445,1360.529 C215.028,1401.089 199.089,1446.109 165.255,1473.569 C164.584,1474.109 165.839,1477.259 166.614,1476.639" id="Fill-30"></path>
                <path d="M150.827,1439.209 C200.637,1400.219 215.922,1324.82 228.999,1266.691 C246.609,1188.446 256.661,1108.464 278.618,1031.212 C287.514,999.92 298.712,967.65 318.401,941.379 C342.615,909.064 390.973,898.989 428.08,891.65 C517.968,873.901 623.741,884.151 697.77,821.51 C738.91,786.71 758.955,731.823 756.815,678.719 C753.694,601.225 761.83,521.231 808.403,456.501 C826.931,430.735 851.981,410.541 879.979,395.931 C912.199,379.102 946.724,369.378 977.111,348.662 C1023.23,317.232 1035.131,269.014 1033.606,215.906 C1033.576,214.937 1032.031,212.392 1032.091,214.585 C1033.392,259.777 1025.555,301.734 991.246,333.48 C953.96,367.971 902.411,377.02 860.364,403.346 C781.421,452.767 756.066,549.875 754.371,637.436 C753.916,661.113 756.454,684.624 753.897,708.252 C751.252,732.661 742.979,756.17 730.812,777.383 C708.331,816.618 669.36,842.474 627.321,856.743 C580.431,872.659 527.876,873.807 479.069,880.211 C435.272,885.963 389.413,892.524 349.57,912.713 C311.024,932.253 294.818,973.385 282.13,1012.267 C265.653,1062.729 256.541,1115.55 246.744,1167.612 C236.717,1220.877 227.083,1274.428 211.468,1326.42 C199.58,1365.989 183.184,1409.849 149.547,1436.179 C148.88,1436.699 150.057,1439.809 150.827,1439.209" id="Fill-31"></path>
                <path d="M135.994,1402.249 C185.489,1364.879 201.765,1291.239 215.582,1234.483 C234.186,1158.086 245.411,1079.857 268.26,1004.507 C277.517,973.986 289.047,942.547 308.797,917.131 C333.088,885.871 380.663,876.825 417.163,870.267 C505.58,854.411 609.086,866.273 682.728,806.14 C723.651,772.733 744.242,719.275 743.057,667.184 C741.327,591.167 750.673,512.892 797.436,450.241 C816.04,425.302 840.942,405.937 868.637,392.095 C900.511,376.152 934.519,367.212 964.661,347.427 C1010.409,317.409 1022.9,270.348 1022.318,218.263 C1022.306,217.313 1020.834,214.792 1020.855,216.942 C1021.355,261.263 1012.953,302.257 978.778,332.787 C941.637,365.958 890.952,373.943 849.282,399.028 C771.052,446.117 744.532,540.872 741.368,626.674 C740.517,649.875 742.601,672.965 739.689,696.082 C736.678,719.963 728.165,742.866 715.874,763.452 C693.164,801.525 654.519,826.203 613.066,839.468 C566.829,854.265 515.293,854.489 467.341,859.928 C424.31,864.816 379.245,870.461 339.843,889.567 C301.723,908.059 285.132,948.101 272.027,985.998 C255.01,1035.179 245.172,1086.801 234.675,1137.666 C223.933,1189.706 213.57,1242.035 197.372,1292.73 C185.04,1331.319 168.215,1374.019 134.791,1399.259 C134.129,1399.759 135.229,1402.829 135.994,1402.249" id="Fill-32"></path>
                <path d="M122.088,1365.769 C171.246,1329.989 188.464,1258.079 202.981,1202.681 C222.529,1128.112 234.874,1051.622 258.564,978.153 C268.162,948.393 280.004,917.773 299.8,893.199 C324.147,862.972 370.937,854.922 406.828,849.12 C493.77,835.093 595.028,848.497 668.246,790.816 C708.935,758.77 730.035,706.722 729.767,655.64 C729.375,581.095 739.881,504.527 786.795,443.916 C805.458,419.789 830.2,401.234 857.586,388.141 C889.103,373.059 922.593,364.88 952.479,346.003 C997.838,317.363 1010.89,271.446 1011.213,220.38 C1011.216,219.448 1009.817,216.952 1009.802,219.059 C1009.531,262.513 1000.592,302.553 966.568,331.894 C929.592,363.772 879.771,370.73 838.494,394.605 C761.002,439.422 733.381,531.849 728.807,615.901 C727.574,638.629 729.221,661.299 725.971,683.909 C722.608,707.267 713.871,729.571 701.47,749.54 C678.556,786.47 640.25,809.998 599.39,822.291 C553.812,836.002 503.291,835.337 456.192,839.846 C413.927,843.899 369.656,848.659 330.705,866.712 C293.021,884.184 276.07,923.151 262.574,960.074 C245.05,1007.992 234.521,1058.424 223.358,1108.104 C211.936,1158.931 200.88,1210.049 184.132,1259.464 C171.382,1297.075 154.157,1338.649 120.96,1362.809 C120.302,1363.289 121.328,1366.319 122.088,1365.769" id="Fill-33"></path>
                <path d="M109.082,1329.769 C157.883,1295.538 175.995,1225.345 191.176,1171.292 C211.616,1098.531 225.029,1023.763 249.512,952.153 C259.431,923.146 271.564,893.334 291.391,869.585 C315.775,840.373 361.778,833.284 397.061,828.213 C482.525,815.955 581.553,830.831 654.313,775.545 C694.748,744.831 716.325,694.173 716.938,644.096 C717.833,571.017 729.443,496.143 776.472,437.534 C795.181,414.204 819.752,396.439 846.82,384.075 C877.974,369.832 910.942,362.389 940.563,344.397 C985.516,317.102 999.098,272.316 1000.29,222.264 C1000.31,221.351 998.981,218.88 998.93,220.945 C997.919,263.536 988.47,302.632 954.614,330.809 C917.822,361.423 868.866,367.388 827.995,390.084 C751.265,432.686 722.603,522.813 716.679,605.126 C715.081,627.384 716.306,649.634 712.731,671.742 C709.035,694.58 700.088,716.294 687.589,735.655 C664.494,771.462 626.542,793.868 586.278,805.217 C541.365,817.876 491.854,816.357 445.608,819.969 C404.109,823.217 360.63,827.123 322.139,844.151 C284.9,860.631 267.616,898.538 253.753,934.5 C235.753,981.171 224.567,1030.426 212.772,1078.932 C200.704,1128.559 188.989,1178.478 171.724,1226.63 C158.581,1263.278 140.983,1303.738 108.028,1326.852 C107.374,1327.309 108.328,1330.299 109.082,1329.769" id="Fill-34"></path>
                <path d="M96.952,1294.256 C145.375,1261.54 164.333,1193.045 180.142,1140.319 C201.427,1069.347 215.857,996.287 241.085,926.511 C251.305,898.248 263.71,869.232 283.553,846.293 C307.957,818.077 353.172,811.917 387.845,807.551 C471.831,797.002 568.646,813.283 640.918,760.338 C681.081,730.924 703.101,681.637 704.561,632.56 C706.691,560.941 719.357,487.745 766.462,431.101 C785.2,408.552 809.592,391.56 836.338,379.904 C867.119,366.478 899.564,359.747 928.908,342.619 C973.441,316.634 987.523,272.966 989.552,223.924 C989.586,223.029 988.327,220.584 988.24,222.608 C986.519,264.34 976.585,302.501 942.916,329.541 C906.325,358.919 858.234,363.926 817.781,385.472 C741.836,425.916 712.195,513.77 704.975,594.356 C703.026,616.146 703.846,637.978 699.964,659.587 C695.948,681.911 686.805,703.042 674.221,721.807 C650.967,756.51 613.381,777.822 573.718,788.256 C529.476,799.894 480.968,797.556 435.574,800.303 C394.839,802.775 352.153,805.858 314.13,821.889 C277.344,837.405 259.751,874.266 245.545,909.28 C227.1,954.719 215.29,1002.81 202.896,1050.155 C190.214,1098.594 177.875,1147.327 160.125,1194.23 C146.613,1229.929 128.668,1269.288 95.968,1291.38 C95.319,1291.82 96.203,1294.76 96.952,1294.256" id="Fill-35"></path>
                <path d="M85.67,1259.238 C133.698,1227.999 153.456,1161.182 169.857,1109.769 C191.939,1040.565 207.338,969.196 233.264,901.232 C243.768,873.702 256.425,845.472 276.269,823.327 C300.675,796.087 345.103,790.824 379.165,787.14 C461.673,778.24 556.296,795.86 628.049,745.201 C667.923,717.057 690.353,669.122 692.625,621.039 C695.943,550.872 709.614,479.339 756.761,424.623 C775.516,402.841 799.716,386.603 826.134,375.637 C856.537,363.004 888.457,356.963 917.515,340.676 C961.614,315.969 976.167,273.405 978.996,225.367 C979.045,224.49 977.853,222.072 977.733,224.054 C975.33,264.932 964.938,302.169 931.47,328.097 C895.098,356.266 847.872,360.35 807.849,380.776 C732.71,419.118 702.147,504.728 693.687,583.597 C691.403,604.924 691.832,626.338 687.656,647.454 C683.337,669.268 674.011,689.824 661.354,708.003 C637.965,741.621 600.755,761.867 561.697,771.415 C518.129,782.064 470.62,778.94 426.076,780.854 C386.104,782.578 344.208,784.868 306.661,799.93 C270.336,814.507 252.458,850.339 237.932,884.418 C219.072,928.642 206.67,975.581 193.709,1021.777 C180.447,1069.042 167.515,1116.6 149.311,1162.272 C135.453,1197.034 117.188,1235.307 84.755,1256.402 C84.111,1256.822 84.927,1259.719 85.67,1259.238" id="Fill-36"></path>
                <path d="M75.212,1224.718 C122.827,1194.92 143.341,1129.762 160.3,1079.647 C183.133,1012.189 199.452,942.494 226.032,876.318 C236.8,849.511 249.692,822.057 269.523,800.689 C293.915,774.406 337.555,770.009 371.007,766.983 C452.038,759.674 544.489,778.57 615.693,730.143 C655.262,703.239 678.07,656.636 681.124,609.542 C685.579,540.817 700.208,470.933 747.361,418.106 C766.119,397.077 790.121,381.575 816.204,371.278 C846.225,359.416 877.617,354.042 906.38,338.577 C950.031,315.114 965.027,273.641 968.625,226.6 C968.688,225.741 967.561,223.351 967.41,225.292 C964.353,265.321 953.527,301.644 920.275,326.485 C884.139,353.474 837.775,356.666 798.192,376.003 C723.881,412.297 692.453,495.692 682.808,572.858 C680.202,593.724 680.256,614.723 675.799,635.35 C671.191,656.658 661.697,676.649 648.978,694.251 C625.475,726.803 588.653,746.011 550.202,754.7 C507.312,764.391 460.796,760.514 417.099,761.627 C377.887,762.629 336.779,764.156 299.716,778.277 C263.859,791.943 245.72,826.76 230.895,859.916 C211.649,902.943 198.687,948.741 185.19,993.802 C171.379,1039.906 157.887,1086.302 139.259,1130.76 C125.079,1164.597 106.518,1201.801 74.363,1221.922 C73.726,1222.323 74.475,1225.177 75.212,1224.718" id="Fill-37"></path>
                <path d="M65.553,1190.701 C112.738,1162.308 133.964,1098.79 151.448,1049.956 C174.987,984.222 192.18,916.184 219.37,851.772 C230.385,825.679 243.493,798.989 263.299,778.383 C287.66,753.038 330.513,749.477 363.356,747.085 C442.912,741.311 533.212,761.419 603.84,715.17 C643.088,689.476 666.246,644.185 670.047,598.074 C675.594,530.784 691.132,462.532 738.26,411.557 C757.008,391.266 780.802,376.482 806.546,366.836 C836.177,355.723 867.041,350.994 895.501,336.327 C938.692,314.077 954.104,273.68 958.438,227.631 C958.514,226.79 957.449,224.427 957.269,226.328 C953.585,265.513 942.351,300.933 909.329,324.713 C873.443,350.549 827.941,352.882 788.81,371.158 C715.342,405.461 683.105,486.668 672.327,562.144 C669.415,582.553 669.106,603.138 664.385,623.281 C659.502,644.089 649.853,663.522 637.083,680.558 C613.485,712.064 577.062,730.26 539.222,738.118 C497.013,746.882 451.482,742.283 408.629,742.625 C370.175,742.935 329.853,743.726 293.28,756.932 C257.897,769.712 239.519,803.531 224.418,835.777 C204.814,877.624 191.323,922.295 177.319,966.234 C162.99,1011.19 148.969,1056.438 129.946,1099.698 C115.465,1132.624 96.633,1168.774 64.769,1187.946 C64.137,1188.328 64.822,1191.138 65.553,1190.701" id="Fill-38"></path>
                <path d="M56.668,1157.19 C103.408,1130.168 125.305,1068.268 143.281,1020.699 C167.482,956.669 185.502,890.269 213.26,827.596 C224.505,802.209 237.812,776.27 257.581,756.412 C281.895,731.985 323.963,729.229 356.198,727.448 C434.281,723.153 522.452,744.413 592.478,700.289 C631.392,675.776 654.869,631.778 659.386,586.643 C665.977,520.778 682.379,454.141 729.451,404.982 C748.177,385.413 771.754,371.329 797.155,362.316 C826.391,351.93 856.727,347.824 884.875,333.936 C927.595,312.866 943.396,273.532 948.434,228.467 C948.522,227.644 947.52,225.309 947.311,227.169 C943.027,265.517 931.406,300.044 898.63,322.788 C863.011,347.498 818.366,349.005 779.694,366.248 C707.09,398.612 674.098,477.662 662.237,551.462 C659.032,571.418 658.377,591.59 653.403,611.254 C648.26,631.568 638.467,650.451 625.658,666.931 C601.986,697.41 565.97,714.622 528.743,721.675 C487.218,729.542 442.665,724.253 400.653,723.853 C362.953,723.497 323.415,723.581 287.337,735.899 C252.434,747.819 233.839,780.654 218.484,812.004 C198.549,852.688 184.558,896.245 170.077,939.076 C155.26,982.898 140.739,1027.011 121.35,1069.089 C106.591,1101.117 87.51,1136.23 55.946,1154.476 C55.32,1154.839 55.944,1157.606 56.668,1157.19" id="Fill-39"></path>
                <path d="M48.534,1124.189 C94.814,1098.503 117.34,1038.202 135.777,991.88 C160.599,929.531 179.402,864.752 207.687,803.794 C219.145,779.1 232.634,753.903 252.353,734.776 C276.605,711.249 317.889,709.269 349.519,708.076 C426.132,705.206 512.196,727.558 581.596,685.508 C620.161,662.147 643.929,619.42 649.131,575.254 C656.722,510.804 673.943,445.765 720.928,398.385 C739.62,379.524 762.973,366.123 788.027,357.723 C816.863,348.045 846.67,344.54 874.501,331.409 C916.738,311.488 932.901,273.203 938.612,229.114 C938.714,228.309 937.771,226.004 937.533,227.823 C932.677,265.34 920.694,298.986 888.175,320.718 C852.835,344.328 809.048,345.039 770.844,361.278 C699.119,391.757 665.421,468.679 652.529,540.818 C649.046,560.324 648.058,580.087 642.844,599.277 C637.454,619.102 627.531,637.443 614.692,653.378 C590.965,682.849 555.365,699.103 518.752,705.378 C477.913,712.377 434.331,706.428 393.157,705.315 C356.208,704.319 317.449,703.723 281.873,715.179 C247.455,726.265 228.664,758.131 213.074,788.599 C192.835,828.137 178.374,870.593 163.444,912.33 C148.167,955.032 133.177,998.025 113.449,1038.939 C98.432,1070.08 79.126,1104.172 47.873,1121.516 C47.253,1121.862 47.817,1124.585 48.534,1124.189" id="Fill-40"></path>
                <path d="M41.126,1091.701 C86.933,1067.315 110.048,1008.592 128.916,963.503 C154.316,902.811 173.859,839.634 202.631,780.366 C214.287,756.357 227.942,731.889 247.599,713.478 C271.776,690.832 312.278,689.599 343.303,688.973 C418.452,687.473 502.432,710.86 571.182,670.832 C609.386,648.594 633.417,607.12 639.274,563.916 C647.821,500.869 665.818,437.41 712.687,391.772 C731.333,373.604 754.455,360.869 779.158,353.065 C807.591,344.072 836.869,341.149 864.375,328.754 C906.119,309.952 922.62,272.7 928.975,229.581 C929.088,228.793 928.203,226.517 927.939,228.296 C922.535,264.989 910.212,297.764 877.962,318.509 C842.915,341.046 799.981,340.992 762.253,356.255 C691.423,384.902 657.071,459.726 643.196,530.217 C639.447,549.279 638.139,568.634 632.7,587.356 C627.076,606.696 617.034,624.504 604.176,639.904 C580.412,668.386 545.236,683.708 509.239,689.231 C469.087,695.391 426.468,688.812 386.127,687.014 C349.924,685.404 311.941,684.155 276.872,694.774 C242.943,705.051 223.978,735.966 208.173,765.564 C187.656,803.973 172.751,845.342 157.4,885.999 C141.693,927.594 126.262,969.481 106.221,1009.249 C90.967,1039.516 71.457,1072.604 40.524,1089.069 C39.911,1089.397 40.416,1092.076 41.126,1091.701" id="Fill-41"></path>
                <path d="M34.422,1059.727 C79.742,1036.609 103.408,979.443 122.676,935.568 C148.617,876.511 168.857,814.918 198.077,757.314 C209.915,733.98 223.72,710.229 243.304,692.52 C267.392,670.735 307.115,670.222 337.538,670.14 C411.228,669.96 493.147,694.325 561.226,656.267 C599.057,635.125 623.324,594.881 629.807,552.631 C639.267,490.977 657.997,429.081 704.723,385.149 C723.311,367.659 746.195,355.572 770.544,348.347 C798.569,340.02 827.318,337.656 854.494,325.978 C895.736,308.263 912.551,272.03 919.52,229.873 C919.644,229.102 918.815,226.856 918.526,228.595 C912.6,264.471 899.957,296.386 867.989,316.169 C833.248,337.659 791.162,336.87 753.919,351.184 C683.996,378.049 649.04,450.805 634.229,519.667 C630.228,538.287 628.613,557.237 622.96,575.496 C617.115,594.357 606.967,611.642 594.098,626.517 C570.315,654.028 535.572,668.444 500.191,673.24 C460.727,678.589 419.063,671.409 379.549,668.955 C344.09,666.756 306.878,664.88 272.32,674.688 C238.885,684.179 219.764,714.158 203.764,742.9 C182.993,780.198 167.673,820.494 151.928,860.084 C135.818,900.588 119.973,941.382 99.645,980.021 C84.173,1009.428 64.482,1041.528 33.877,1057.136 C33.27,1057.448 33.72,1060.083 34.422,1059.727" id="Fill-42"></path>
                <path d="M28.399,1028.27 C73.221,1006.386 97.4,950.755 117.04,908.078 C143.481,850.633 164.378,790.604 194.009,734.639 C206.013,711.969 219.953,688.925 239.454,671.901 C263.44,650.961 302.387,651.139 332.21,651.581 C404.447,652.668 484.33,677.958 551.716,641.819 C589.162,621.744 613.641,582.712 620.72,541.408 C631.051,481.134 650.473,420.782 697.028,378.519 C715.552,361.694 738.189,350.239 762.182,343.574 C789.796,335.892 818.018,334.068 844.856,323.088 C885.589,306.43 902.691,271.202 910.246,229.996 C910.381,229.243 909.607,227.027 909.294,228.727 C902.869,263.792 889.929,294.861 858.253,313.703 C823.83,334.173 782.59,332.677 745.836,346.069 C676.834,371.204 641.32,441.923 625.621,509.17 C621.378,527.354 619.471,545.902 613.616,563.703 C607.563,582.091 597.319,598.86 584.449,613.221 C560.664,639.78 526.36,653.316 491.597,657.41 C452.82,661.976 412.102,654.223 373.411,651.14 C338.69,648.376 302.247,645.899 268.202,654.92 C235.266,663.65 216.007,692.708 199.831,720.608 C178.831,756.812 163.122,796.049 147.009,834.587 C130.522,874.015 114.29,913.731 93.701,951.257 C78.03,979.819 58.177,1010.946 27.909,1025.721 C27.31,1026.016 27.705,1028.606 28.399,1028.27" id="Fill-43"></path>
                <path d="M23.035,997.332 C67.346,976.649 92.002,922.532 111.986,881.034 C138.891,825.178 160.405,766.694 190.41,712.343 C202.566,690.327 216.625,667.977 236.034,651.625 C259.905,631.509 298.079,632.352 327.305,633.296 C398.097,635.602 475.967,661.762 542.643,627.493 C579.693,608.457 604.357,570.617 612.005,530.25 C623.166,471.344 643.24,412.518 689.602,371.889 C708.046,355.715 730.434,344.874 754.065,338.752 C781.267,331.696 808.962,330.392 835.46,320.089 C875.672,304.459 893.041,270.22 901.153,229.959 C901.299,229.223 900.579,227.037 900.243,228.698 C893.343,262.96 880.125,293.193 848.752,311.12 C814.657,330.594 774.257,328.421 738,340.918 C669.931,364.372 633.905,433.085 617.363,498.734 C612.892,516.485 610.704,534.634 604.659,551.983 C598.411,569.904 588.081,586.166 575.219,600.022 C551.448,625.649 517.59,638.328 483.443,641.745 C445.354,645.556 405.574,637.257 367.7,633.571 C333.713,630.266 298.032,627.212 264.505,635.471 C232.07,643.464 212.693,671.618 196.357,698.689 C175.151,733.817 159.08,772.01 142.624,809.509 C125.787,847.876 109.194,886.529 88.368,922.961 C72.517,950.689 52.522,980.86 22.599,994.824 C22.005,995.103 22.349,997.648 23.035,997.332" id="Fill-44"></path>
                <path d="M18.307,966.912 C62.098,947.398 87.196,894.773 107.496,854.438 C134.828,800.148 156.92,743.188 187.265,690.425 C199.558,669.053 213.724,647.386 233.029,631.69 C256.773,612.381 294.179,613.862 322.812,615.289 C392.165,618.763 468.048,645.743 533.994,613.295 C570.639,595.271 595.465,558.601 603.654,519.163 C615.605,461.613 636.292,404.294 682.434,365.262 C700.791,349.724 722.923,339.481 746.193,333.885 C772.978,327.436 800.147,326.633 826.299,316.988 C865.985,302.357 883.598,269.093 892.241,229.766 C892.396,229.047 891.729,226.892 891.37,228.515 C884.019,261.981 870.544,291.389 839.482,308.424 C805.728,326.929 766.163,324.106 730.408,335.733 C663.281,357.557 626.788,424.294 609.447,488.361 C604.76,505.685 602.304,523.438 596.081,540.341 C589.648,557.8 579.244,573.564 566.398,586.925 C542.657,611.638 509.25,623.486 475.719,626.25 C438.317,629.332 399.466,620.515 362.404,616.252 C329.145,612.428 294.221,608.823 261.215,616.344 C229.283,623.622 209.807,650.887 193.329,677.143 C171.939,711.214 155.53,748.377 138.756,784.852 C121.593,822.172 104.665,859.777 83.626,895.131 C67.612,922.04 47.495,951.272 17.923,964.446 C17.336,964.71 17.629,967.211 18.307,966.912" id="Fill-45"></path>
                <path d="M14.195,937.012 C57.456,918.635 82.96,867.48 103.551,828.291 C131.274,775.543 153.907,720.087 184.558,668.887 C196.975,648.148 211.232,627.152 230.425,612.097 C254.032,593.577 290.673,595.67 318.715,597.561 C386.639,602.156 460.56,629.904 525.759,599.229 C561.989,582.19 586.954,546.671 595.659,508.152 C608.36,451.944 629.622,396.112 675.521,358.644 C693.783,343.727 715.653,334.067 738.561,328.981 C764.926,323.118 791.573,322.797 817.373,313.791 C856.525,300.13 874.361,267.825 883.509,229.424 C883.673,228.722 883.056,226.598 882.676,228.182 C874.896,260.861 861.183,289.458 830.442,305.623 C797.037,323.183 758.303,319.736 723.056,330.521 C656.879,350.762 619.963,415.554 601.865,478.058 C596.973,494.96 594.261,512.319 587.871,528.781 C581.266,545.786 570.797,561.059 557.976,573.937 C534.28,597.753 501.33,608.794 468.414,610.928 C431.698,613.307 393.766,603.998 357.509,599.183 C324.972,594.865 290.8,590.732 258.318,597.538 C226.892,604.125 207.333,630.517 190.73,655.971 C169.179,689.002 152.456,725.149 135.387,760.616 C117.923,796.903 100.685,833.475 79.455,867.77 C63.295,893.873 43.074,922.182 13.861,934.588 C13.281,934.837 13.525,937.294 14.195,937.012" id="Fill-46"></path>
                <path d="M10.677,907.632 C53.398,890.361 79.276,840.654 100.133,802.592 C128.213,751.362 151.351,697.39 182.274,647.728 C194.802,627.611 209.137,607.275 228.209,592.846 C251.667,575.098 287.549,577.778 315.004,580.112 C381.507,585.782 453.491,614.251 517.929,585.3 C553.735,569.218 578.816,534.83 588.01,497.221 C601.425,442.342 623.224,387.978 668.86,352.037 C687.017,337.729 708.62,328.634 731.161,324.042 C757.106,318.748 783.232,318.89 808.677,310.505 C847.291,297.785 865.328,266.424 874.954,228.938 C875.127,228.254 874.558,226.161 874.159,227.707 C865.972,259.608 852.04,287.403 821.629,302.722 C788.583,319.362 750.673,315.319 715.936,325.285 C650.721,343.991 613.422,406.87 594.609,467.829 C589.524,484.312 586.568,501.282 580.022,517.31 C573.256,533.865 562.731,548.657 549.942,561.06 C526.307,583.999 493.818,594.256 461.516,595.784 C425.485,597.486 388.461,587.71 353.003,582.368 C321.184,577.577 287.758,572.94 255.801,579.054 C224.883,584.971 205.257,610.506 188.545,635.173 C166.854,667.182 149.841,702.327 132.501,736.8 C114.76,772.071 97.234,807.625 75.835,840.879 C59.547,866.188 39.24,893.591 10.391,905.251 C9.819,905.484 10.016,907.897 10.677,907.632" id="Fill-47"></path>
                <path d="M7.732,878.773 C49.906,862.576 76.125,814.295 97.224,777.343 C125.628,727.606 149.234,675.098 180.398,626.947 C193.023,607.443 207.425,587.754 226.368,573.938 C249.666,556.943 284.793,560.186 311.666,562.945 C376.757,569.644 446.831,598.785 510.492,571.511 C545.867,556.362 571.042,523.083 580.7,486.376 C594.791,432.811 617.092,379.894 662.443,345.447 C680.486,331.733 701.819,323.188 723.994,319.073 C749.518,314.329 775.125,314.917 800.21,307.133 C838.279,295.328 856.498,264.896 866.577,228.316 C866.759,227.648 866.236,225.587 865.818,227.095 C857.246,258.225 843.112,285.233 813.04,299.727 C780.361,315.471 743.27,310.858 709.048,320.031 C644.801,337.249 607.16,398.245 587.673,457.677 C582.406,473.747 579.217,490.332 572.525,505.93 C565.608,522.042 555.038,536.361 542.289,548.299 C518.727,570.38 486.704,579.878 455.014,580.82 C419.666,581.871 383.542,571.653 348.876,565.808 C317.767,560.566 285.081,555.446 253.65,560.892 C223.242,566.162 203.565,590.856 186.761,614.748 C164.949,645.753 147.669,679.911 130.081,713.406 C112.084,747.675 94.295,782.226 72.749,814.456 C56.349,838.986 35.972,865.5 7.493,876.433 C6.928,876.652 7.08,879.021 7.732,878.773" id="Fill-48"></path>
                <path d="M5.341,850.433 C46.959,835.28 73.489,788.402 94.805,752.543 C123.501,704.275 147.541,653.21 178.916,606.545 C191.626,587.643 206.081,568.59 224.887,555.372 C248.017,539.112 282.394,542.894 308.688,546.06 C372.378,553.743 440.568,583.51 503.439,557.868 C538.375,543.625 563.624,511.435 573.72,475.619 C588.452,423.354 611.22,371.865 656.266,338.877 C674.188,325.743 695.246,317.733 717.053,314.08 C742.153,309.868 767.245,310.883 791.969,303.684 C829.487,292.764 847.869,263.247 858.377,227.562 C858.565,226.91 858.089,224.881 857.653,226.353 C848.716,256.72 834.398,282.952 804.672,296.644 C772.369,311.516 736.089,306.358 702.386,314.763 C639.113,330.538 601.169,389.683 581.048,447.607 C575.609,463.269 572.198,479.471 565.371,494.646 C558.315,510.321 547.708,524.176 535.006,535.66 C511.53,556.9 479.978,565.661 448.898,566.041 C414.229,566.464 378.994,555.829 345.113,549.505 C314.709,543.832 282.757,538.253 251.854,543.051 C221.956,547.696 202.245,571.565 185.362,594.696 C163.449,624.714 145.925,657.901 128.109,690.433 C109.881,723.716 91.85,757.279 70.176,788.502 C53.68,812.266 33.251,837.907 5.147,848.135 C4.589,848.34 4.697,850.666 5.341,850.433" id="Fill-49"></path>
                <path d="M3.484,822.612 C44.54,808.472 71.349,762.976 92.859,728.191 C121.816,681.37 146.258,631.725 177.812,586.521 C190.597,568.211 205.092,549.782 223.753,537.148 C246.705,521.606 280.338,525.903 306.059,529.457 C368.359,538.081 434.69,568.43 496.759,544.373 C531.249,531.01 556.551,499.89 567.062,464.955 C582.4,413.975 605.602,363.895 650.323,332.33 C668.116,319.763 688.896,312.273 710.335,309.067 C735.012,305.368 759.59,306.794 783.949,300.161 C820.914,290.101 839.438,261.482 850.352,226.683 C850.548,226.047 850.114,224.049 849.663,225.484 C840.381,255.099 825.896,280.567 796.522,293.478 C764.602,307.503 729.127,301.824 695.946,309.484 C633.652,323.862 595.444,381.188 574.726,437.622 C569.126,452.881 565.505,468.704 558.552,483.463 C551.367,498.707 540.731,512.106 528.083,523.145 C504.707,543.563 473.627,551.609 443.155,551.449 C409.165,551.269 374.808,540.239 341.705,533.459 C311.999,527.377 280.774,521.359 250.399,525.533 C221.012,529.573 201.281,552.631 184.335,575.017 C162.34,604.066 144.593,636.296 126.571,667.879 C108.132,700.192 89.881,732.783 68.1,763.016 C51.522,786.029 31.057,810.812 3.332,820.357 C2.782,820.548 2.848,822.829 3.484,822.612" id="Fill-50"></path>
                <path d="M2.14,795.309 C42.627,782.153 69.687,738.015 91.369,704.286 C120.558,658.887 145.368,610.643 177.075,566.874 C189.92,549.144 204.446,531.329 222.955,519.264 C245.72,504.423 278.615,509.212 303.766,513.137 C364.687,522.659 429.188,553.547 490.443,531.03 C524.481,518.523 549.817,488.452 560.72,454.387 C576.628,404.677 600.231,355.985 644.611,325.811 C662.268,313.798 682.766,306.812 703.836,304.037 C728.089,300.835 752.156,302.654 776.148,296.57 C812.556,287.343 831.205,259.607 842.499,225.683 C842.702,225.063 842.312,223.098 841.845,224.497 C832.238,253.366 817.603,278.083 788.587,290.234 C757.057,303.435 722.381,297.259 689.724,304.199 C628.415,317.224 589.978,372.762 568.701,427.726 C562.95,442.588 559.128,458.036 552.06,472.383 C544.755,487.203 534.1,500.155 521.513,510.759 C498.248,530.373 467.644,537.726 437.777,537.047 C404.46,536.287 370.972,524.885 338.64,517.671 C309.625,511.2 279.12,504.766 249.274,508.336 C220.397,511.792 200.661,534.056 183.666,555.708 C161.607,583.806 143.658,615.095 125.45,645.745 C106.821,677.103 88.372,708.737 66.502,738 C49.857,760.273 29.371,784.215 2.031,793.096 C1.488,793.274 1.513,795.51 2.14,795.309" id="Fill-51"></path>
                <path d="M1.291,768.522 C41.205,756.321 68.487,713.519 90.319,680.829 C119.71,636.828 144.858,589.962 176.688,547.602 C189.585,530.443 204.129,513.229 222.479,501.719 C245.049,487.563 277.212,492.821 301.799,497.1 C361.353,507.48 424.049,538.863 484.48,517.842 C518.061,506.167 543.412,477.124 554.684,443.919 C571.131,395.465 595.103,348.139 639.123,319.323 C656.637,307.85 676.85,301.354 697.552,298.995 C721.38,296.273 744.941,298.468 768.563,292.916 C804.41,284.496 823.166,257.628 834.818,224.568 C835.028,223.964 834.681,222.031 834.198,223.394 C824.286,251.528 809.516,275.506 780.865,286.92 C749.731,299.318 715.847,292.67 683.716,298.912 C623.394,310.628 584.764,364.409 562.964,417.922 C557.072,432.391 553.061,447.469 545.886,461.411 C538.471,475.813 527.805,488.326 515.284,498.505 C492.142,517.332 462.017,524.015 432.752,522.837 C400.106,521.52 367.476,509.77 335.906,502.143 C307.575,495.302 277.783,488.471 248.466,491.459 C220.101,494.351 200.372,515.838 183.342,536.77 C161.236,563.934 143.105,594.297 124.73,624.029 C105.932,654.448 87.304,685.14 65.365,713.449 C48.666,734.998 28.174,758.115 1.222,766.351 C0.687,766.516 0.673,768.709 1.291,768.522" id="Fill-52"></path>
                <path d="M0.919,742.25 C40.253,730.975 67.731,689.487 89.692,657.816 C119.257,615.19 144.712,569.682 176.641,528.704 C189.577,512.105 204.129,495.481 222.314,484.513 C244.681,471.024 276.118,476.731 300.146,481.346 C358.345,492.543 419.264,524.382 478.862,504.813 C511.979,493.944 537.327,465.91 548.946,433.555 C565.9,386.339 590.21,340.361 633.855,312.869 C651.22,301.924 671.145,295.903 691.478,293.945 C714.882,291.685 737.94,294.242 761.19,289.205 C796.473,281.566 815.319,255.55 827.31,223.343 C827.526,222.755 827.218,220.854 826.722,222.182 C816.522,249.59 801.633,272.841 773.353,283.538 C742.621,295.157 709.52,288.058 677.917,293.627 C618.586,304.076 579.796,356.132 557.509,408.213 C551.485,422.296 547.295,437.006 540.022,450.55 C532.507,464.54 521.836,476.623 509.389,486.385 C486.381,504.444 456.736,510.478 428.069,508.821 C396.092,506.97 364.307,494.892 333.492,486.875 C305.839,479.683 276.752,472.476 247.963,474.901 C220.109,477.25 200.401,497.973 183.349,518.2 C161.214,544.448 142.919,573.901 124.398,602.73 C105.449,632.225 86.663,661.991 64.671,689.365 C47.933,710.201 27.449,732.51 0.888,740.121 C0.361,740.274 0.31,742.422 0.919,742.25" id="Fill-53"></path>
                <path d="M1.005,716.491 C39.755,706.113 67.402,665.917 89.472,635.249 C119.185,593.971 144.917,549.799 176.918,510.178 C189.883,494.13 204.433,478.083 222.447,467.645 C244.604,454.805 275.321,460.939 298.795,465.876 C355.653,477.849 414.821,510.105 473.578,491.945 C506.227,481.859 531.555,454.813 543.5,423.297 C560.929,377.305 585.547,332.651 628.802,306.452 C646.011,296.021 665.645,290.461 685.61,288.891 C708.591,287.077 731.15,289.979 754.027,285.44 C788.744,278.558 807.665,253.379 819.97,222.014 C820.191,221.441 819.923,219.572 819.414,220.866 C808.945,247.558 793.951,270.093 766.046,280.093 C735.723,290.956 703.397,283.43 672.323,288.346 C613.985,297.57 575.068,347.932 552.329,398.602 C546.182,412.303 541.822,426.652 534.461,439.803 C526.854,453.387 516.187,465.049 503.818,474.405 C480.955,491.712 451.792,497.118 423.72,495.002 C392.406,492.639 361.457,480.255 331.388,471.867 C304.405,464.342 276.017,456.779 247.754,458.663 C220.41,460.487 200.736,480.463 183.674,499.997 C161.526,525.347 143.088,553.904 124.437,581.845 C105.357,610.433 86.432,639.289 64.405,665.744 C47.64,685.881 27.178,707.398 1.011,714.403 C0.492,714.544 0.405,716.649 1.005,716.491" id="Fill-54"></path>
                <path d="M1.531,691.242 C39.693,681.734 67.483,642.806 89.644,613.123 C119.478,573.17 145.46,530.313 177.508,492.024 C190.492,476.514 205.03,461.035 222.867,451.111 C244.806,438.906 274.811,445.445 297.737,450.687 C353.266,463.4 410.712,496.033 468.619,479.24 C500.796,469.913 526.088,443.837 538.337,413.148 C556.211,368.364 581.109,325.015 623.958,300.075 C641.007,290.145 660.349,285.032 679.946,283.836 C702.503,282.452 724.567,285.683 747.07,281.627 C781.219,275.476 800.198,251.119 812.798,220.586 C813.025,220.027 812.794,218.191 812.272,219.45 C801.553,245.435 786.469,267.268 758.943,276.592 C729.032,286.719 697.475,278.788 666.931,283.073 C609.587,291.115 570.575,339.814 547.415,389.093 C541.155,402.418 536.635,416.408 529.194,429.173 C521.504,442.359 510.848,453.607 498.562,462.566 C475.854,479.138 447.175,483.938 419.694,481.381 C389.039,478.528 358.914,465.857 329.583,457.119 C303.262,449.28 275.564,441.38 247.828,442.741 C220.993,444.06 201.365,463.304 184.305,482.16 C162.16,506.629 143.596,534.305 124.834,561.375 C105.641,589.07 86.594,617.031 64.549,642.586 C47.77,662.037 27.343,682.778 1.573,689.196 C1.061,689.324 0.94,691.387 1.531,691.242" id="Fill-55"></path>
                <path d="M2.479,666.501 C40.051,657.836 67.96,620.154 90.192,591.437 C120.122,552.785 146.326,511.22 178.397,474.238 C191.391,459.257 205.907,444.334 223.562,434.912 C245.277,423.324 274.578,430.249 296.96,435.781 C351.174,449.195 406.925,482.169 463.976,466.701 C495.678,458.11 520.917,432.983 533.451,403.11 C551.74,359.519 576.889,317.453 619.32,293.741 C636.202,284.3 655.249,279.619 674.48,278.783 C696.615,277.814 718.188,281.359 740.316,277.769 C773.895,272.326 792.917,248.776 805.792,219.062 C806.024,218.519 805.829,216.714 805.296,217.94 C794.343,243.228 779.182,264.37 752.041,273.038 C722.548,282.452 691.749,274.136 661.735,277.813 C605.386,284.712 566.31,331.779 542.762,379.687 C536.396,392.641 531.727,406.278 524.213,418.663 C516.449,431.456 505.81,442.298 493.614,450.87 C471.07,466.726 442.876,470.938 415.981,467.961 C385.981,464.638 356.668,451.7 328.067,442.632 C302.4,434.497 275.385,426.277 248.174,427.136 C221.846,427.968 202.276,446.495 185.229,464.686 C163.102,488.291 144.43,515.102 125.575,541.315 C106.285,568.134 87.135,595.215 65.087,619.887 C48.306,638.667 27.927,658.647 2.556,664.496 C2.052,664.613 1.898,666.633 2.479,666.501" id="Fill-56"></path>
                <path d="M3.834,642.265 C40.812,634.416 68.816,597.957 91.101,570.189 C121.103,532.815 147.502,492.52 179.575,456.819 C192.568,442.357 207.054,427.977 224.522,419.045 C246.006,408.059 274.609,415.349 296.455,421.156 C349.367,435.235 403.451,468.513 459.64,454.331 C490.863,446.453 516.034,422.255 528.833,393.188 C547.508,350.771 572.883,309.968 614.882,287.452 C631.593,278.488 650.344,274.226 669.209,273.736 C690.924,273.166 712.009,277.012 733.762,273.872 C766.771,269.113 785.82,246.354 798.95,217.448 C799.188,216.92 799.027,215.148 798.484,216.34 C787.313,240.94 772.09,261.405 745.336,269.435 C716.264,278.157 686.217,269.478 656.732,272.567 C601.378,278.362 562.267,323.83 538.362,370.387 C531.9,382.976 527.088,396.263 519.511,408.275 C511.681,420.681 501.066,431.128 488.964,439.32 C466.593,454.476 438.884,458.122 412.572,454.742 C383.221,450.97 354.71,437.785 326.829,428.405 C301.809,419.99 275.469,411.469 248.78,411.844 C222.958,412.209 203.457,430.033 186.435,447.572 C164.34,470.332 145.577,496.293 126.645,521.664 C107.276,547.623 88.04,573.84 66.004,597.646 C49.232,615.767 28.913,635.003 3.943,640.301 C3.447,640.407 3.262,642.385 3.834,642.265" id="Fill-57"></path>
                <path d="M5.578,618.531 C41.959,611.472 70.036,576.213 92.357,549.377 C122.407,513.255 148.976,474.21 181.027,439.764 C194.012,425.811 208.458,411.964 225.735,403.508 C246.983,393.107 274.896,400.744 296.21,406.811 C347.835,421.52 400.279,455.068 455.602,442.13 C486.343,434.944 511.432,411.656 524.477,383.382 C543.511,342.124 569.084,302.562 610.64,281.212 C627.174,272.712 645.627,268.856 664.128,268.699 C685.424,268.513 706.026,272.644 727.403,269.94 C759.842,265.841 778.906,243.859 792.272,215.749 C792.515,215.235 792.387,213.495 791.835,214.654 C780.462,238.577 765.187,258.376 738.825,265.789 C710.178,273.84 680.873,264.817 651.918,267.339 C597.559,272.07 558.439,315.968 534.208,361.196 C527.658,373.424 522.714,386.366 515.08,398.011 C507.191,410.038 496.607,420.096 484.604,427.92 C462.415,442.392 435.191,445.49 409.456,441.725 C380.751,437.525 353.028,424.111 325.86,414.438 C301.479,405.76 275.805,396.956 249.637,396.865 C224.319,396.78 204.897,413.918 187.911,430.818 C165.862,452.749 147.024,477.875 128.031,502.42 C108.6,527.533 89.293,552.903 67.285,575.86 C50.534,593.336 30.286,611.843 5.718,616.608 C5.23,616.704 5.015,618.639 5.578,618.531" id="Fill-58"></path>
                <path d="M7.694,595.296 C43.478,589.001 71.604,554.921 93.945,528.997 C124.02,494.105 150.735,456.286 182.744,423.071 C195.711,409.617 210.11,396.291 227.19,388.299 C248.197,378.467 275.427,386.432 296.216,392.745 C346.569,408.049 397.401,441.835 451.853,430.101 C482.11,423.585 507.103,401.187 520.374,373.696 C539.741,333.579 565.487,295.238 606.588,275.022 C622.941,266.973 641.097,263.51 659.235,263.674 C680.112,263.857 700.237,268.26 721.238,265.976 C753.106,262.515 772.17,241.294 785.756,213.969 C786.002,213.469 785.906,211.761 785.345,212.888 C773.786,236.143 758.474,255.289 732.506,262.103 C704.286,269.504 675.715,260.156 647.289,262.131 C593.922,265.837 554.823,308.196 530.295,352.115 C523.664,363.989 518.596,376.59 510.912,387.875 C502.974,399.528 492.426,409.206 480.526,416.669 C458.527,430.474 431.788,433.045 406.626,428.913 C378.56,424.302 351.615,410.678 325.149,400.731 C301.398,391.806 276.383,382.734 250.734,382.197 C225.918,381.679 206.586,398.145 189.645,414.42 C167.656,435.539 148.758,459.845 129.72,483.58 C110.241,507.864 90.881,532.401 68.914,554.527 C52.194,571.37 32.028,589.164 7.864,593.414 C7.385,593.499 7.14,595.392 7.694,595.296" id="Fill-59"></path>
                <path d="M10.167,572.557 C45.352,567 73.507,534.075 95.851,509.047 C125.931,475.36 152.767,438.747 184.713,406.738 C197.655,393.772 211.998,380.956 228.877,373.415 C249.638,364.138 276.193,372.413 296.464,378.958 C345.559,394.823 394.807,428.813 448.384,418.246 C478.155,412.377 503.039,390.85 516.52,364.13 C536.191,325.138 562.087,287.996 602.723,268.885 C618.891,261.276 636.747,258.193 654.524,258.665 C674.986,259.202 694.638,263.864 715.263,261.984 C746.561,259.139 765.612,238.664 779.397,212.112 C779.647,211.626 779.583,209.951 779.014,211.046 C767.285,233.642 751.946,252.148 726.374,258.382 C698.585,265.152 670.739,255.499 642.841,256.947 C590.465,259.664 551.412,300.516 526.614,343.146 C519.911,354.672 514.727,366.937 507.001,377.866 C499.02,389.154 488.515,398.459 476.722,405.571 C454.92,418.726 428.665,420.787 404.071,416.305 C376.639,411.304 350.46,397.487 324.688,387.281 C301.56,378.126 277.194,368.804 252.062,367.838 C227.744,366.904 208.512,382.713 191.625,398.376 C169.709,418.7 150.768,442.202 131.699,465.141 C112.188,488.611 92.79,512.332 70.877,533.644 C54.198,549.866 34.125,566.963 10.366,570.714 C9.895,570.79 9.623,572.641 10.167,572.557" id="Fill-60"></path>
                <path d="M12.981,550.309 C47.566,545.465 75.73,513.674 98.062,489.524 C128.125,457.019 155.059,421.589 186.924,390.761 C199.833,378.273 214.111,365.957 230.787,358.854 C251.296,350.117 277.185,358.683 296.943,365.446 C344.795,381.84 392.488,416.004 445.187,406.565 C474.471,401.322 499.232,380.648 512.905,354.688 C532.857,316.803 558.879,280.84 599.039,262.803 C615.019,255.622 632.575,252.906 649.992,253.674 C670.041,254.551 689.224,259.458 709.474,257.969 C740.202,255.717 759.228,235.973 773.197,210.183 C773.45,209.711 773.416,208.067 772.84,209.131 C760.954,231.08 745.602,248.957 720.428,254.629 C693.071,260.788 665.941,250.848 638.569,251.789 C587.182,253.554 548.199,292.928 523.16,334.291 C516.392,345.474 511.1,357.408 503.339,367.989 C495.321,378.917 484.865,387.858 473.183,394.627 C451.586,407.148 425.814,408.717 401.784,403.902 C374.979,398.529 349.555,384.536 324.466,374.09 C301.952,364.718 278.228,355.163 253.608,353.785 C229.788,352.452 210.664,367.619 193.843,382.682 C172.011,402.23 153.041,424.942 133.955,447.101 C114.427,469.772 95.004,492.691 73.159,513.206 C56.532,528.822 36.562,545.237 13.208,548.506 C12.745,548.572 12.446,550.382 12.981,550.309" id="Fill-61"></path>
                <path d="M16.122,528.549 C50.106,524.395 78.259,493.715 100.564,470.425 C130.591,439.077 157.601,404.81 189.365,375.137 C202.232,363.117 216.44,351.29 232.909,344.613 C253.162,336.401 278.393,345.242 297.644,352.211 C344.27,369.102 390.434,403.408 442.254,395.06 C471.049,390.424 495.676,370.582 509.524,345.369 C529.732,308.576 555.856,273.769 595.533,256.778 C611.319,250.013 628.575,247.652 645.636,248.703 C665.273,249.907 683.993,255.047 703.868,253.934 C734.027,252.254 753.017,233.227 767.152,208.185 C767.408,207.727 767.403,206.115 766.819,207.148 C754.793,228.459 739.436,245.72 714.663,250.847 C687.741,256.416 661.318,246.207 634.471,246.66 C584.068,247.508 545.18,285.436 519.926,325.551 C513.1,336.398 507.708,348.005 499.918,358.244 C491.872,368.818 481.469,377.403 469.901,383.838 C448.517,395.741 423.227,396.838 399.754,391.705 C373.57,385.979 348.889,371.826 324.476,361.155 C302.567,351.583 279.476,341.81 255.366,340.036 C232.039,338.321 213.033,352.86 196.286,367.337 C174.549,386.124 155.564,408.062 136.476,429.455 C116.944,451.344 97.513,473.477 75.747,493.212 C59.18,508.234 39.324,523.982 16.375,526.786 C15.919,526.842 15.596,528.612 16.122,528.549" id="Fill-62"></path>
                <path d="M19.573,507.273 C52.958,503.784 81.081,474.193 103.344,451.746 C133.316,421.533 160.38,388.406 192.025,359.864 C204.845,348.303 218.975,336.952 235.232,330.69 C255.227,322.987 279.807,332.087 298.559,339.248 C343.974,356.606 388.637,391.026 439.576,383.732 C467.882,379.681 492.363,360.654 506.37,336.177 C526.81,300.457 553.015,266.787 592.199,250.812 C607.79,244.451 624.745,242.433 641.451,243.756 C660.679,245.274 678.94,250.632 698.442,249.883 C728.035,248.753 746.976,230.428 761.261,206.124 C761.52,205.678 761.543,204.099 760.953,205.101 C748.798,225.785 733.449,242.441 709.077,247.042 C682.593,252.039 656.866,241.578 630.541,241.562 C581.12,241.528 542.35,278.04 516.906,316.929 C510.028,327.444 504.544,338.73 496.733,348.632 C488.664,358.86 478.319,367.097 466.87,373.206 C445.704,384.507 420.895,385.148 397.973,379.715 C372.405,373.652 348.455,359.355 324.707,348.477 C303.395,338.718 280.928,328.741 257.325,326.589 C234.488,324.507 215.608,338.433 198.943,352.337 C177.314,370.38 158.328,391.559 139.249,412.202 C119.729,433.323 100.301,454.685 78.627,473.656 C62.129,488.098 42.395,503.194 19.852,505.549 C19.404,505.596 19.057,507.325 19.573,507.273" id="Fill-63"></path>
                <path d="M23.322,486.476 C56.106,483.629 84.181,455.105 106.39,433.484 C136.289,404.382 163.386,372.374 194.895,344.939 C207.66,333.826 221.706,322.942 237.749,317.082 C257.48,309.875 281.419,319.216 299.677,326.558 C343.897,344.351 387.087,378.859 437.145,372.582 C464.962,369.097 489.285,350.866 503.436,327.113 C524.084,292.449 550.35,259.894 589.033,244.907 C604.425,238.939 621.08,237.252 637.433,238.835 C656.255,240.653 674.064,246.219 693.193,245.818 C722.221,245.218 741.102,227.581 755.522,204.002 C755.783,203.569 755.833,202.022 755.237,202.994 C742.967,223.06 727.637,239.124 703.667,243.216 C677.619,247.66 652.581,236.965 626.776,236.497 C578.332,235.616 539.702,270.741 514.094,308.426 C507.171,318.615 501.602,329.584 493.775,339.156 C485.69,349.044 475.408,356.94 464.081,362.732 C443.139,373.447 418.809,373.65 396.434,367.93 C371.475,361.549 348.243,347.123 325.15,336.052 C304.427,326.121 282.575,315.956 259.476,313.441 C237.125,311.009 218.38,324.336 201.806,337.679 C180.294,354.994 161.32,375.429 142.264,395.337 C122.767,415.706 103.356,436.313 81.785,454.537 C65.366,468.41 45.763,482.87 23.624,484.791 C23.185,484.83 22.814,486.519 23.322,486.476" id="Fill-64"></path>
                <path d="M27.353,466.155 C59.539,463.926 87.548,436.447 109.689,415.634 C139.496,387.62 166.607,356.71 197.965,330.358 C210.668,319.683 224.623,309.255 240.45,303.786 C259.915,297.06 283.221,306.628 300.992,314.137 C344.033,332.338 385.777,366.904 434.954,361.61 C462.281,358.672 486.437,341.218 500.715,318.177 C521.55,284.552 547.855,253.091 586.031,239.064 C601.221,233.478 617.576,232.109 633.579,233.942 C651.999,236.047 669.36,241.809 688.118,241.744 C716.582,241.654 735.393,224.689 749.933,201.823 C750.196,201.404 750.271,199.887 749.671,200.83 C737.299,220.29 721.995,235.773 698.429,239.373 C672.82,243.282 648.46,232.369 623.173,231.467 C575.701,229.773 537.231,263.541 511.483,300.042 C504.522,309.911 498.875,320.568 491.039,329.817 C482.944,339.37 472.729,346.934 461.526,352.417 C440.814,362.561 416.961,362.342 395.127,356.352 C370.77,349.669 348.245,335.13 325.799,323.881 C305.655,313.79 284.41,303.452 261.81,300.59 C239.942,297.822 221.339,310.564 204.863,323.359 C183.48,339.964 164.53,359.669 145.509,378.857 C126.047,398.489 106.667,418.356 85.209,435.85 C68.876,449.167 49.412,463.005 27.679,464.508 C27.247,464.539 26.855,466.188 27.353,466.155" id="Fill-65"></path>
                <path d="M31.653,446.304 C63.241,444.672 91.168,418.216 113.229,398.194 C142.928,371.245 170.033,341.41 201.224,316.117 C213.859,305.872 227.717,295.889 243.326,290.799 C262.521,284.54 285.202,294.319 302.493,301.984 C344.372,320.564 384.698,355.164 432.995,350.818 C459.832,348.406 483.81,331.712 498.201,309.371 C519.201,276.768 545.526,246.38 583.189,233.284 C598.175,228.07 614.23,227.009 629.885,229.08 C647.905,231.459 664.824,237.405 683.212,237.664 C711.116,238.063 729.846,221.756 744.49,199.591 C744.757,199.185 744.856,197.7 744.252,198.614 C731.79,217.477 716.523,232.392 693.36,235.516 C668.19,238.909 644.499,227.793 619.727,226.476 C573.223,224 534.934,256.441 509.067,291.779 C502.075,301.334 496.356,311.683 488.516,320.615 C480.417,329.84 470.275,337.08 459.199,342.262 C438.722,351.851 415.345,351.227 394.044,344.98 C370.283,338.011 348.453,323.373 326.643,311.962 C307.071,301.724 286.422,291.226 264.318,288.032 C242.93,284.945 224.476,297.116 208.106,309.376 C186.86,325.285 167.946,344.276 148.972,362.758 C129.558,381.669 110.22,400.81 88.886,417.59 C72.647,430.364 53.331,443.594 32,444.696 C31.577,444.718 31.165,446.328 31.653,446.304" id="Fill-66"></path>
                <path d="M36.209,426.92 C67.201,425.861 95.03,400.408 116.999,381.16 C146.573,355.253 173.654,326.472 204.663,302.214 C217.224,292.388 230.979,282.839 246.367,278.119 C265.291,272.312 287.355,282.287 304.173,290.098 C344.906,309.029 383.842,343.636 431.259,340.205 C457.607,338.301 481.397,322.348 495.888,300.695 C517.033,269.097 543.359,239.761 580.502,227.57 C595.281,222.716 611.038,221.952 626.348,224.25 C643.971,226.891 660.454,233.01 678.474,233.579 C705.819,234.45 724.459,218.787 739.194,197.311 C739.463,196.917 739.586,195.463 738.978,196.348 C726.438,214.625 711.217,228.983 688.459,231.649 C663.728,234.542 640.695,223.24 616.435,221.524 C570.892,218.299 532.803,249.442 506.841,283.638 C499.823,292.884 494.04,302.93 486.202,311.551 C478.104,320.456 468.039,327.378 457.092,332.268 C436.855,341.316 413.951,340.303 393.178,333.815 C370.006,326.576 348.858,311.852 327.675,300.293 C308.665,289.921 288.605,279.276 266.992,275.766 C246.08,272.373 227.781,283.987 211.524,295.724 C190.426,310.954 171.56,329.245 152.643,347.037 C133.288,365.241 114.004,383.672 92.803,399.755 C76.666,411.998 57.504,424.635 36.577,425.349 C36.161,425.363 35.729,426.934 36.209,426.92" id="Fill-67"></path>
                <path d="M41.007,407.996 C71.405,407.49 99.121,383.017 120.986,364.526 C150.42,339.638 177.46,311.891 208.272,288.644 C220.753,279.228 234.401,270.104 249.566,265.741 C268.215,260.374 289.673,270.529 306.024,278.475 C345.628,297.731 383.201,332.322 429.739,329.772 C455.6,328.358 479.194,313.129 493.77,292.152 C515.039,261.541 541.348,233.236 577.966,221.923 C592.537,217.419 607.995,216.94 622.963,219.455 C640.192,222.347 656.245,228.628 673.899,229.494 C700.689,230.817 719.229,215.783 734.043,194.984 C734.311,194.603 734.458,193.18 733.846,194.037 C721.24,211.737 706.074,225.551 683.72,227.773 C659.428,230.185 637.044,218.711 613.293,216.612 C568.705,212.671 530.834,242.545 504.799,275.62 C497.761,284.563 491.919,294.311 484.088,302.628 C475.999,311.217 466.013,317.83 455.199,322.436 C435.207,330.957 412.771,329.572 392.521,322.855 C369.931,315.361 349.453,300.566 328.887,288.871 C310.431,278.379 290.949,267.6 269.824,263.789 C249.383,260.104 231.246,271.174 215.109,282.4 C194.166,296.967 175.359,314.573 156.511,331.69 C137.227,349.201 118.007,366.938 96.949,382.339 C80.921,394.063 61.921,406.122 41.395,406.463 C40.987,406.47 40.537,408.002 41.007,407.996" id="Fill-68"></path>
                <path d="M46.036,389.528 C75.841,389.554 103.43,366.04 125.18,348.29 C154.459,324.399 181.441,297.664 212.043,275.404 C224.439,266.388 237.974,257.679 252.914,253.662 C271.287,248.721 292.146,259.044 308.039,267.113 C346.529,286.668 382.766,321.221 428.429,319.52 C453.802,318.577 477.192,304.053 491.839,283.741 C513.213,254.1 539.488,226.805 575.578,216.344 C589.937,212.179 605.098,211.974 619.728,214.697 C636.567,217.827 652.194,224.259 669.485,225.412 C695.724,227.168 714.154,212.749 729.032,192.615 C729.303,192.246 729.47,190.854 728.855,191.684 C716.195,208.817 701.093,222.098 679.142,223.893 C655.288,225.84 633.543,214.209 610.297,211.745 C566.658,207.115 529.022,235.75 502.935,267.725 C495.882,276.37 489.989,285.826 482.17,293.843 C474.092,302.125 464.19,308.435 453.511,312.765 C433.768,320.775 411.8,319.032 392.064,312.1 C370.05,304.367 350.23,289.512 330.271,277.696 C312.359,267.094 293.448,256.194 272.805,252.096 C252.831,248.133 234.863,258.674 218.853,269.401 C198.073,283.321 179.336,300.257 160.566,316.712 C141.362,333.547 122.218,350.603 101.312,365.339 C85.399,376.556 66.568,388.05 46.442,388.032 C46.041,388.032 45.574,389.526 46.036,389.528" id="Fill-69"></path>
                <path d="M51.281,371.512 C80.497,372.049 107.944,349.473 129.569,332.446 C158.68,309.529 185.587,283.786 215.966,262.491 C228.273,253.866 241.689,245.561 256.403,241.88 C274.498,237.351 294.768,247.828 310.207,256.01 C347.603,275.84 382.53,310.331 427.32,309.447 C452.209,308.958 475.385,295.123 490.092,275.464 C511.552,246.774 537.776,220.47 573.332,210.835 C587.479,206.998 602.344,207.057 616.638,209.977 C633.09,213.335 648.299,219.908 665.228,221.334 C690.918,223.506 709.232,209.688 724.161,190.207 C724.433,189.85 724.621,188.488 724.004,189.291 C711.301,205.869 696.268,218.629 674.72,220.011 C651.304,221.511 630.188,209.736 607.444,206.921 C564.747,201.635 527.363,229.058 501.243,259.954 C494.181,268.307 488.242,277.475 480.44,285.2 C472.38,293.179 462.565,299.195 452.023,303.256 C432.532,310.769 411.028,308.684 391.801,301.55 C370.355,293.592 351.181,278.691 331.819,266.766 C314.443,256.066 296.092,245.057 275.928,240.686 C256.416,236.459 238.623,246.482 222.745,256.723 C202.137,270.012 183.479,286.292 164.798,302.099 C145.685,318.272 126.626,334.663 105.88,348.749 C90.09,359.471 71.433,370.415 51.705,370.053 C51.312,370.046 50.829,371.503 51.281,371.512" id="Fill-70"></path>
            </g>
        </g>
    </g>
</svg>